<?xml version="1.0" standalone="no"?>
<!DOCTYPE svg PUBLIC "-//W3C//DTD SVG 1.1//EN" "http://www.w3.org/Graphics/SVG/1.1/DTD/svg11.dtd" >
<svg xmlns="http://www.w3.org/2000/svg" xmlns:xlink="http://www.w3.org/1999/xlink" version="1.1">
<metadata>
Created by FontForge 20170731 at Thu Apr 14 17:12:50 2011
 By Aleksey,,,
King Fahad Complex, All rights reserved.
</metadata>
<defs>
<font id="QCF_P174" horiz-adv-x="992" >
  <font-face 
    font-family="QCF_P174"
    font-weight="400"
    font-stretch="normal"
    units-per-em="2048"
    panose-1="2 0 4 0 0 0 0 0 0 0"
    ascent="1638"
    descent="-410"
    x-height="1525"
    cap-height="1689"
    bbox="-4 -969 8333 2309"
    underline-thickness="100"
    underline-position="-350"
    unicode-range="U+000D-FEFC"
  />
<missing-glyph 
d="M142 226v1362h700v-1362h-700zM284 368h416v1079h-416v-1079z" />
    <glyph glyph-name="uniFC25" unicode="&#xfc25;" arabic-form="isolated" 
d="M142 226v1362h700v-1362h-700zM284 368h416v1079h-416v-1079z" />
    <glyph glyph-name="uniFB51" unicode="&#x671;" horiz-adv-x="2996" arabic-form="final" 
d="M3049 1375q-81 -72 -212 -136q-105 -48 -209 -95q-36 -24 -116 -69q-25 24 -25 56q0 36 118 99q65 31 131 62q98 56 289 151q14 -11 24 -11v-57zM2313 1633q0 -93 -528 -374q-14 15 -14 41q0 44 150 137q79 45 159 90q77 53 219 131q14 -2 14 -25zM1719 1587
q0 -60 -81 -110q-63 -34 -126 -67q-5 -3 -331 -181l-25 25q13 38 54 93q74 48 472 260q37 0 37 -20zM2989 189q0 -132 -121 -310q-131 -194 -273 -210l-18 -8.5t-34 -8.5q-117 0 -236 23q-21 4 -76 31q14 41 30 47q3 2 36 2q14 0 32 -5.5t30 -5.5t37.5 8t33.5 9
q127 5 255 105q121 96 201 242l-7 46q-88 -62 -110 -62q-65 0 -102 76q-26 55 -26 108q0 51 32 131q44 105 106 105q51 0 125 -101q60 -82 70 -118q15 -51 15 -104zM1791 922q0 -39 -42 -78q-38 -35 -60 -35q-12 0 -46 20.5t-47 20.5t-48.5 -31t-48.5 -31q-36 0 -74 37
q-34 34 -34 56q0 30 34 72q31 40 48 40q10 0 44.5 -25.5t48.5 -25.5q12 0 48 35.5t49 35.5q23 0 75.5 -36t52.5 -55zM1012 1355q1 -34 -83 -95q-75 -53 -104 -60q-161 -33 -146 -33h-63q-4 10 -13 26q26 28 94 58q82 34 111 56q-12 34 -72 34q-20 0 -142 -71v47q40 45 81 89
q60 58 102 58q11 0 235 -63v-46zM2261 302q0 -91 1 -88q-5 -30 -55 -139q-14 -29 -118 -59q-92 -26 -145 -26q-13 0 -151 30.5t-151 30.5q-2 0 -113 -41t-174 -41q-216 0 -287 205q-35 -42 -130 -120q-39 -22 -136 -47q-100 -27 -153 -27q-56 0 -114 25q-75 33 -75 87
q0 31 54 112q10 0 27 -16q19 -19 28 -22q71 -23 121 -23q71 0 181 31q162 46 162 123q0 11 -30.5 160t-30.5 162q0 84 43 138q14 0 35 -34q33 -126 57 -287q17 -36 35 -103q7 -92 86 -150q68 -50 143 -50q19 0 76.5 15t63.5 22q-2 69 6 204q7 41 78 130q82 100 140 100
q65 0 105 -83q33 -68 33 -143q0 -113 -51 -170q7 -44 163 -44q131 0 185 47q-5 57 -86 623q-5 34 -32 124q-26 85 -26 96q0 22 86 195q13 -13 22 -66q11 -57 27 -80q10 -14 41 -28q41 -18 50 -24q-4 -10 -59 -147q-3 -5 -3 -70q0 -12 35.5 -265.5t35.5 -266.5zM2804 277v40
q0 16 -6 20q-2 1 -7 0h-36l-12 -36l23 -24h38zM1771 338q0 18 -14 49q-20 43 -48 43q-34 0 -68 -40.5t-34 -72.5q0 -61 56 -61q108 41 108 82z" />
    <glyph glyph-name="uniFB52" unicode="&#x67b;" horiz-adv-x="2743" arabic-form="isolated" 
d="M2669 1479q0 -74 -476 -312q-36 14 -36 51q0 35 150 114q100 52 201 103q47 35 146 90q15 -14 15 -46zM2464 936q0 -33 -34 -66q-31 -30 -58 -30q-30 0 -70 24q-42 26 -42 52q0 18 30 65q33 53 56 53q29 0 75 -44q43 -40 43 -54zM2095 1416q1 -38 -218 -182
q-169 -111 -279 -169q-14 15 -14 46q0 43 119 121q85 50 170 101q62 45 185 130h37v-47zM1481 1720q0 -62 -138 -138q-121 -67 -165 -66h-52l-12 12v27q47 33 163 90q-25 44 -82 44q-12 0 -48 -11q-42 -15 -63 -18q0 5 5 23q6 23 7 31q140 87 150 87q12 0 94 -21
q91 -24 128 -30q13 -13 13 -30zM2751 225q0 -107 -25 -141q-19 -25 -166 -66q-139 -38 -188 -38q-92 0 -92 102q0 35 23 81q20 0 44 -5t35 -5q100 0 259 64q8 6 8 29q0 64 -103 140q-71 52 -153 86q0 132 66 132q123 0 213 -141q79 -123 79 -238zM999 1637q0 -49 -24 -79
q-32 -39 -162 -107q-89 -55 -259 -151q-25 25 -25 41q0 47 178 152l246 144h46zM1521 1273q5 -43 -61 -74q-61 -24 -122 -49q12 -24 27 -69q16 -154 58 -509q38 -311 38 -321q0 -82 -44 -168h-36l-125 906q21 39 42 102v37q-48 0 -112 -32q5 51 -5 106q0 1 -13.5 19
t-13.5 33q0 38 83 109q16 21 52 55q22 16 54 16q67 0 67 -72q0 -20 -16 -45q-18 -27 -36 -27q-12 0 -34 11t-38 11q0 -1 2 -14q80 -28 102 -28q15 0 25.5 7.5t27.5 7.5q24 0 78 -12zM2096 282q0 -106 -73 -253q-79 -155 -185 -240q-26 -20 -104 -38q-75 -17 -130 -17
q-147 0 -244 43q-1 6 -11 24q6 13 23 32q77 13 59 13q10 0 26 -4.5t29 -4.5q131 0 203 32.5t174 137.5q104 108 113 163q8 8 17 14q11 10 11 26q0 35 -61 91q-77 71 -90 91q-3 12 -3 43q0 47 34 97q49 -4 130.5 -101.5t81.5 -148.5zM1000 737q0 -23 -33.5 -57.5t-53.5 -34.5
q-8 0 -117 55q17 41 34 84q25 45 62 45q40 0 74 -30t34 -62zM1092 251q0 -104 -39 -157q-4 -21 -25 -50q-113 -54 -273 -54h-77q-25 0 -62.5 33t-42.5 63q-14 83 -48 430q-8 85 -34 308q-23 193 -23 205q0 30 43 116h37q21 -64 39 -208q10 -80 27 -360q13 -229 41 -366
q11 -58 120 -58q8 0 168 23q15 3 47 35q-5 9 -62 90q-41 58 -41 73q0 41 45 107q160 -60 160 -230z" />
    <glyph glyph-name="uniFB53" unicode="&#x67b;" horiz-adv-x="4064" arabic-form="final" 
d="M3348 1480q1 -23 -120 -91q-99 -55 -158 -80q-109 -55 -320 -160q-25 24 -25 45q0 39 235 163l342 180h46v-57zM4230 -115q0 -82 -126 -132q-67 -29 -194 -82q-23 -9 -209 -88q-24 24 -24 46q0 41 138 104q71 28 141 56q126 62 236 131q38 0 38 -35zM2581 1506
q-20 -79 -36 -90q-82 -58 -510 -308h-37v45q0 35 226 174q287 177 289 179h68zM1813 1676q0 -56 -158 -147l-172 -86q-73 -45 -218 -120q-6 5 -18 17t-17 18q23 39 75 94q161 83 496 259q0 -3 6 -11.5t6 -23.5zM3155 -156q0 -18 -39.5 -57.5t-57.5 -39.5q-37 0 -86 29
q-53 32 -53 62q0 27 40.5 70t62.5 43q26 0 79.5 -43t53.5 -64zM1752 1251q0 -127 -209 -167q-16 -3 -55.5 -25.5t-52.5 -22.5q-62 0 -62 76q0 33 13 74q18 53 45 65q8 -12 18 -57q7 -35 22 -35q44 0 88 131h38q0 -52 20 -80h27q27 13 36.5 65t48.5 68q23 -71 23 -92z
M4066 329q0 -134 -56 -223q-24 -38 -184 -67q-206 -37 -221 -37q-171 0 -191 55q-4 9 -3 146v27q-13 8 -67 8q-57 0 -195 -47q-91 -32 -182 -63q-71 -20 -226 -48q-95 -7 -304 -35q0 -26 16 -93t16 -78q0 -62 -37 -135q-43 -85 -96 -85q-43 0 -89 24q-88 44 -123 149
q-27 81 -53 162q-23 5 -48.5 21t-40.5 19q-7 0 -103 5q-72 1 -114 23q-12 5 -57 45q-39 33 -53 33q-13 0 -25 -15q-17 -18 -24 -23q-131 -75 -198 -75h-28q-13 0 -123.5 5.5t-124.5 5.5q-36 0 -65.5 -36t-66.5 -36q-13 0 -103 25.5t-102 25.5q-11 0 -62 -44q-59 -51 -90 -65
q-54 -25 -143 -51q-84 -24 -106 -24h-216q-4 10 -13 26q56 58 97 63q99 11 215 49q134 45 207 104q-15 23 -15 55q0 82 76 169.5t148 87.5q8 0 17 -2q6 -6 18 -22q59 -100 115 -129q103 -53 176 -53h123q155 0 239 53q36 46 102 130h37q-2 -40 3 -114q74 -48 239 -48
q78 0 99 11q17 12 26 27q7 31 26 91q25 59 104 175q92 136 129 136q75 0 92 -210q0 -68 -62 -212q45 -9 185 -9q308 0 512 109q-7 16 -52.5 41t-65.5 25q-84 0 -247 -41q-14 14 -14 30q0 70 125 138q107 57 162 57q11 0 119 -49q126 -56 174 -71q175 -58 341 -58q32 0 59 4
q13 -14 13 -36q0 -17 -22 -54.5t-41 -49.5t-59 -17q-44 -5 -63 -14q0 -18 18 -32q73 -23 132 -23q75 0 179 25q142 34 142 89q0 6 -41 230q-47 241 -58 327q4 25 4 71q-3 15 -21 51q-16 34 -16 47q0 103 96 205q14 -10 22 -80q7 -54 75 -64q-2 -68 -26 -114.5t-24 -110.5
q0 -12 21 -88q23 -86 27 -111q34 -205 34 -313zM1700 748q4 -39 -24 -84q-30 -48 -68 -48q-29 0 -66 35q-36 33 -36 52q0 16 30 65q31 53 52 53q36 0 112 -73zM984 1492q0 -12 -15 -43q-180 -90 -501 -269h-36v34q-1 51 204 168q157 83 312 165q36 -17 36 -55zM2346 370
q0 49 -48 72q-79 -120 -115 -181l21 -7q142 60 142 116zM2356 -127v35q-81 53 -99 52h-64v-33q0 -22 41 -55.5t66 -33.5q29 0 56 35zM880 178q0 2 -33 69q-36 -36 -36 -47q22 -22 69 -22z" />
    <glyph glyph-name="uniFB54" unicode="&#x67b;" horiz-adv-x="4982" arabic-form="initial" 
d="M3087 1562q0 -53 -53 -88q-129 -85 -277 -165q-68 -37 -198 -95q-14 15 -14 36q0 56 43 82q421 261 444 261h42q13 -14 13 -31zM4971 410q0 -32 -42.5 -110t-62.5 -86q-46 -13 -144 -41q-45 -14 -614 -87q-623 -80 -805 -80q-11 0 -252.5 -10t-254.5 -10q-197 0 -400 10
q-63 11 -184 27q-168 17 -287 126q-28 -38 -99 -109q-46 -34 -146 -34q-127 0 -184 104q-62 127 -123 255q-52 -47 -137 -152q-10 -17 -20.5 -86t-26.5 -98q-106 -193 -178.5 -246t-226.5 -53h-123q-55 0 -143 44q19 59 56 59q13 0 41 -5.5t41 -5.5q115 0 213 43
q54 24 162 138q121 128 121 193q0 13 -28 39q-36 34 -40 39q-14 20 -14 65q0 20 45 87q41 -20 73 -20q100 0 135 85q28 90 55 180h40q17 -34 49 -185q30 -147 70 -214q62 -102 173 -102q78 0 123 37q22 19 50 69q21 37 43 37q13 0 50 -26q50 -36 64 -44q69 -37 153 -50
q273 -44 444 -44l666 21q282 0 628 58q69 -1 206 5q199 28 593 82q66 9 98 45q-18 52 -89 91q-66 36 -121 36q-5 0 -203 -30q-211 -32 -297 -39q-259 -26 -517 -51q-234 -23 -447 -23h-368q-78 0 -198 25q-137 31 -186 69q-2 17 2 56q7 26 87 134q120 164 330 273
q202 95 403 190h35q13 -14 13 -46q0 -41 -38.5 -85t-88.5 -61q-389 -131 -590 -337q0 -8 18 -21q237 -54 540 -54q-8 0 222.5 5t345.5 5l1044 134q72 7 160 -75q86 -80 86 -146zM1940 973q0 -36 -43 -74q-39 -33 -64 -33q-32 0 -62 43q-25 36 -25 49q0 36 87 113
q30 -18 58 -36q49 -35 49 -62zM1388 1665q0 -72 -436 -308q-25 25 -25 36q0 64 213 192q129 78 223 121q25 -25 25 -41zM2094 804q0 -32 -45 -69q-40 -33 -62 -33q-13 0 -43.5 20.5t-44.5 20.5q-12 0 -58 -41t-59 -41q-18 0 -57.5 39.5t-39.5 58.5q0 14 29 45q43 46 45 47
q13 5 28 5q16 0 43 -15.5t39 -15.5q15 0 52.5 36t50.5 36q36 0 82 -42q40 -36 40 -51zM1183 1368q0 -75 -403 -276h-47v44q0 40 197 147q163 88 239 115q14 -14 14 -30zM2361 -213q0 -5 -15 -44q-29 -41 -108 -74q-58 -22 -116 -45q-98 -44 -299 -140q-14 12 -25 12v33
q-1 43 35 64q415 230 462 229h53q13 -13 13 -35zM692 242q0 -36 -54 -143q-11 0 -35 34q-3 151 -31 359q-75 530 -75 492q0 69 13 104q16 23 42 65q39 -19 43 -56q97 -737 97 -855zM1572 -295q0 -31 -44 -66q-40 -32 -64 -32q-12 0 -45.5 20.5t-45.5 20.5q-11 0 -52 -36
t-56 -36q-26 0 -91 64q0 37 29.5 78.5t56.5 41.5q11 0 51 -20t51 -20q12 0 45 36t48 36q26 0 73 -37q44 -35 44 -50z" />
    <glyph glyph-name="uniFB55" unicode="&#x67b;" horiz-adv-x="2876" arabic-form="medial" 
d="M2834 1161q0 -97 -84 -171q-38 -9 -105 -27q-18 -5 -65 -28q-40 -20 -54 -20q-82 0 -82 102q0 11 28 52q31 46 53 50v-72q3 0 10 -4.5t22 -4.5q16 0 55 65q44 73 54 78q10 -15 14 -55q2 -31 27 -47q36 11 45 71q11 67 34 82h35q13 -25 13 -71zM2904 -227q1 -56 -242 -165
q-151 -68 -303 -136h-35q-23 24 -23 36q0 64 331 192q66 36 194 96q28 1 78 13v-36zM2178 1217q0 -19 -22 -56.5t-42 -48.5q-98 -49 -261 -114q-220 -89 -261 -107q-495 -215 -964 -456h-36q0 3 -5.5 14t-5.5 26q0 85 351 238q185 78 553 245q53 34 154 86q62 24 284 122
q176 77 190 76h53q12 -1 12 -25zM2874 260q0 -57 -28 -96q-26 -37 -58 -37q-69 0 -285 72q-64 -109 -216 -117q-13 -8 -24 -24q-24 -257 -390 -393q-273 -101 -587 -101h-120q-50 0 -326 85q-96 30 -217 124q-140 108 -148 195q-1 8 -27 61v33q13 13 30 13q9 0 90 -79
q91 -88 133 -113q72 -41 173 -67q87 -33 256 -75q106 -13 234 -13q167 0 303 28q102 22 289 87q40 13 192 137q5 95 -14 150q-4 12 -28 49q-20 31 -20 45q0 55 54 127q30 -27 97 -79q35 -22 110 -22q102 0 212 153.5t188 153.5q48 0 92 -147q35 -114 35 -150zM1543 214
q0 -19 -31.5 -53t-55.5 -34q-26 0 -66.5 33t-40.5 49q0 18 36.5 65t55.5 47q37 0 72 -43q30 -39 30 -64zM2709 323v47l-57 12l-13 -36q23 -23 70 -23z" />
    <glyph glyph-name="uniFB56" unicode="&#x67e;" horiz-adv-x="2733" arabic-form="isolated" 
d="M2837 1448q0 -92 -105 -164q-89 -62 -161 -62q-12 0 -54 15.5t-53 15.5q-12 0 -45 -16q-39 -20 -52 -24v34q-1 24 64 73q61 46 78 46q14 0 16 -5t15 -5q24 0 84.5 92t125.5 92q34 0 62 -33q25 -32 25 -59zM2161 1520q0 -58 -125 -122q-105 -53 -137 -53h-62q-7 13 -24 36
q55 53 124 85q4 33 -37 33q-28 0 -90 -40h-47v48q7 3 81 61q57 43 97 43q15 0 88 -23q99 -34 121 -40q0 -3 5.5 -8.5t5.5 -19.5zM2735 188q0 -64 -67 -143q-23 16 -32 91l-8 118q-11 98 -34 297q-9 81 -39 279q-25 171 -25 183q0 63 54 127l43 -26q25 -164 68 -546
q40 -353 40 -380zM973 1186q0 -85 -64 -139q-55 -45 -135 -54q-15 -2 -55 -24.5t-53 -22.5q-29 0 -47 45q-14 35 -14 72q0 67 57 108q11 -15 21 -46t20 -46q24 18 51 59q40 60 51 74q11 -30 42 -92q33 12 40 45l8 44q15 22 41 64q37 -9 37 -87zM2171 -175q0 -28 -42 -65
q-38 -32 -50 -32q-40 0 -76.5 30.5t-36.5 61.5q0 17 34 60t54 43q29 0 73 -35.5t44 -62.5zM2509 243q0 -36 -63 -82q-19 -14 -55 -14q-12 0 -109.5 10.5t-110.5 10.5q-53 0 -228 -69q-154 -60 -246 -82q-126 -29 -400 -37q-18 -9 -29 -71q-18 -94 -22 -106q-15 -47 -57 -102
q-50 -67 -106 -93q-178 -85 -371 -85q-70 0 -155 48q-78 44 -102 88q-30 52 -38 115q-1 1 -9 16t-8 30q0 70 48.5 167t118.5 170q38 0 38 -30q0 -11 -31 -75q-40 -83 -49 -106q-2 -5 -2 -44q0 -110 97 -164q73 -41 174 -41q117 0 229 45q155 62 155 176q0 10 -41 149
t-41 152t5.5 41t5.5 38q13 13 30 13q12 0 44 -50q37 -58 56 -71q81 -53 207 -53q116 0 220 24q76 18 152 37l18 18q0 8 -18 20q-55 15 -173 51q-21 6 -147 6q18 48 74 116q76 43 328 68q4 3 28 24q-35 235 -56 449q-1 19 -19 72q-17 50 -17 62q0 33 31.5 103t55.5 87
q22 -23 29 -65q7 -46 18 -60q4 -5 53 -25q38 -16 38 -50q0 -13 -36 -84.5t-36 -84.5q0 5 18.5 -156.5t18.5 -258.5q0 -12 -27 -100q82 -53 247 -69q222 -21 265 -33v-45zM2448 -298q0 -54 -159 -133q-80 -35 -161 -70q-32 -15 -227 -98h-34q-13 13 -13 30q0 69 372 217
q74 39 208 90q14 -14 14 -36zM892 521q0 -40 -41 -72q-32 -25 -51 -25q-36 0 -81 39q-42 38 -42 58t35 63.5t47 43.5q43 0 91 -46q42 -41 42 -61zM1435 -466q0 -18 -21.5 -48t-43.5 -42q-189 -98 -443 -207q-25 25 -25 40q0 55 157 130q82 34 163 67q52 31 154 89h47
q0 -3 6 -9t6 -20zM2723 1404q-9 0 -24 13q-28 -14 -40 -60q51 20 64 47z" />
    <glyph glyph-name="uniFB57" unicode="&#x67e;" horiz-adv-x="4392" arabic-form="final" 
d="M4330 1428q0 -82 -242 -219q-173 -98 -247 -123q0 4 -6 12t-6 23q0 52 143 138l156 84q69 50 188 121q14 -15 14 -36zM3849 1530q0 -17 -55 -105q-56 -91 -81 -101q-81 -34 -135 -34q-12 0 -44 5t-43 5q-26 0 -88 -61q-14 15 -14 31q0 19 24 60q28 45 59 68q34 8 94 27
q10 5 70 104q52 89 116 89q32 0 63 -23q34 -26 34 -65zM3368 1561q0 -61 -147 -135q-128 -64 -167 -64h-74q0 4 -5.5 25.5t-5.5 34.5q57 25 174 80q-9 34 -57 34q-13 0 -43 -11q-38 -14 -63 -19v47l55 51q49 44 97 44q22 0 118 -25t110 -34q8 -5 8 -28zM3706 287
q0 -141 -69 -174l-126 880q-7 133 44 184q25 0 33 -13q26 -142 79 -452q10 -61 26 -237q13 -160 13 -188zM4391 225q0 -109 -45 -191q-116 -211 -239 -292q-119 -80 -310 -80q-166 0 -244 65v36q6 2 127 2q162 0 325 94q186 107 244 278q-8 6 -33 -3q-30 -11 -39 -11
q-76 0 -121 74q-33 56 -33 110q0 83 50 170q55 96 124 96q90 0 151 -166q43 -119 43 -182zM3235 1004q0 -14 -41 -84.5t-41 -83.5v-300q0 -5 -25 -153q-2 -15 -24.5 -52.5t-22.5 -48.5q0 -3 68 -162q4 -10 4 -63q0 -57 -26 -114q-18 -11 -125 -33.5t-152 -22.5
q-34 0 -114 23q-95 28 -95 54q0 43 43 124q37 -1 102 16q41 25 96.5 81.5t55.5 75.5q0 31 -78 99q-74 97 -149 195q-162 192 -234 192q-11 0 -42.5 -10t-44.5 -10q-31 0 -105 44q-35 21 -51 72q-3 9 -3 47q0 46 44 133q183 -44 370 -214q160 -144 274 -331q23 -23 76 -79
q44 40 54 147q1 24 1 165q0 12 -3.5 38.5t-3.5 33.5q0 4 5 64q4 44 -1 68q-3 15 -22 64q-16 43 -16 55q0 20 33 88.5t62 105.5h36q24 -84 15 -126q10 -13 53 -47q27 -21 27 -51zM1903 922q0 -34 -31.5 -68.5t-64.5 -34.5q-23 0 -54 22q-34 25 -34 49q0 19 30 68q33 55 58 55
t63 -40q33 -37 33 -51zM3143 -353q0 -59 -35 -73q-7 -4 -173 -83q-112 -53 -126 -53h-64q0 52 29 96q-7 11 -43 46q-29 27 -29 41q0 40 86 125q82 80 103 80q30 0 97 -42q0 -31 -14 -67q-19 -44 -47 -44q-5 0 -36 6q-24 4 -46 -2q55 -35 93 -35q12 0 69 20.5t70 20.5h53
q13 -13 13 -36zM3266 -475q0 -52 -45 -74q-139 -68 -412 -208q-35 21 -35 56q0 95 456 271q36 -35 36 -45zM2221 287q0 -287 -291 -287q-33 0 -91 25q-71 30 -86 68q-14 -11 -78 -70q-25 -23 -79 -23q-42 0 -57.5 6t-89.5 55q-47 -51 -122 -58q-92 -7 -118 -21
q-8 -47 -36 -142q-36 -89 -111 -143q-25 -19 -146.5 -52.5t-168.5 -33.5q-117 0 -217 75q-111 83 -111 201q0 60 42 150q46 98 105 147h37v-68q0 -13 -16 -32q-20 -23 -22 -30q-23 -59 -23 -85q0 -91 83 -141q71 -43 168 -43h51q33 0 152 43q54 20 100 66q7 64 -26 202
q-3 17 -32 88q-25 63 -25 77q0 20 45 87q25 -13 52 -56q18 -29 37 -59q17 -20 89 -46q64 -23 84 -23q84 0 129 50q67 74 103 92q10 -19 10 -41q0 -15 -5.5 -37t-5.5 -29q0 -25 61 -25t89 41q66 95 73 101h47q9 -96 54 -125q26 -17 100 -17q112 0 133 45q-55 137 -112 196
q-34 31 -69 61q-24 34 -24 143q0 22 45 67q53 3 145 -146q128 -204 128 -253zM1658 -368q0 -54 -222 -163q-147 -67 -294 -133h-36q0 3 -5.5 11.5t-5.5 23.5q0 57 33 72q159 74 472 218h46q0 -3 6 -8.5t6 -20.5zM3736 1470q-9 9 -25 14q-57 -5 -57 -55q0 -8 2 -15
q17 1 46 21q26 20 34 35zM4217 320q-18 54 -46 69q-35 -35 -35 -46q0 -24 11 -24q36 -18 70 1zM2999 107q0 5 -5 24.5t-5 24.5q-18 0 -39 -22v-37q5 0 24.5 5t24.5 5z" />
    <glyph glyph-name="uniFB58" unicode="&#x67e;" horiz-adv-x="81" arabic-form="initial" 
d="M892 1302q-7 -17 -14 -33q-10 -17 -32 -21q-121 -25 -357 -42q-174 -12 -232 -12q-113 0 -163 32q-2 15 -2 30q0 61 48 115l84 86q20 29 20 72q0 28 -12 89.5t-12 91.5q0 46 22 77q24 -31 69 -217q35 -151 95 -151q11 0 45.5 25.5t46.5 25.5q10 0 35 -10t37 -10t104 66.5
t105 66.5q19 0 101 -52q7 -14 7 -29q0 -50 -68 -104q-59 -48 -111 -59v-9q10 -2 25 -2q10 0 35 2t39 2q57 0 85 -30zM769 1464q-9 10 -26 16q-44 -22 -44 -39q24 0 70 23zM672 1333q-32 0 -96.5 17.5t-72.5 17.5q-13 0 -54 -15.5t-54 -15.5q-39 0 -74.5 26t-37.5 26
q-14 0 -49 -35q-32 -31 -48 -55l240 -13q132 17 246 47z" />
    <glyph glyph-name="uniFB59" unicode="&#x67e;" horiz-adv-x="2002" arabic-form="medial" 
d="M1815 1756q0 -51 -26 -70q-120 -84 -397 -277q-37 12 -37 51q0 -6 14 49q223 165 432 288q14 -14 14 -41zM1416 979q0 -14 -5.5 -32.5t-5.5 -28.5q-3 0 -11.5 -5.5t-23.5 -5.5q-13 0 -48.5 25.5t-48.5 25.5t-48 -35q-52 -52 -67 -64q-53 -43 -217 -136h-44l-12 13v37
q173 132 286 232q-23 34 -56 59q-16 12 -16 53q0 35 40 104q49 86 109 86q78 0 78 -218q90 -72 90 -110zM924 1330q1 -34 -93 -101q-90 -66 -127 -66q-9 0 -25 -10t-30 -10q-72 0 -72 35q0 33 56 60q39 17 77 34q2 15 -7 21q-11 1 -31 10q5 4 -18 4q-12 0 -42 -23
q-39 -31 -85 -49v54q-1 36 68 95q67 55 100 55q5 0 229 -63v-46zM2010 247q0 -58 -30 -134q-43 -107 -118 -107q-9 0 -138.5 20.5t-143.5 20.5q-13 0 -187 -25.5t-186 -25.5t-94.5 10t-95.5 10q-49 0 -65.5 -107.5t-83.5 -107.5q-42 0 -92 82q-41 67 -43 87q-9 114 -6 132
q-5 9 -24 27q-53 6 -137 -35q-102 -49 -102 -123l72 -650q0 -59 -44 -113q-28 0 -46 23q-18 203 -47 442q-37 297 -37 278q0 43 53 144q60 115 123 152q40 24 175 59q22 4 63 48q50 -44 156 -121q107 -63 310 -63q72 0 124 8q-2 27 27 111q13 57 68 175q7 11 96 110
q74 81 74 108q0 122 -44 352q-3 13 -22 46q-16 29 -16 47q0 40 30 120q26 71 45 100q27 -1 36 -49q12 -62 24 -76q21 -20 43 -41q17 -18 17 -49q0 -26 -4 -38q-31 -52 -35 -75q-2 -7 -2 -66q0 -257 53 -376q16 -33 117 -102q97 -66 122 -134q15 -40 15 -94zM1897 226
q-5 8 -95 96h-47q0 -118 1 -120q10 0 38.5 -6t41.5 -6q43 0 61 36zM1662 313q0 30 -36 66q-25 26 -53 26q-75 -75 -75 -107q0 -10 26 -37q29 -30 51 -30q21 0 54 29.5t33 52.5zM1252 1171q-28 27 -61 10q18 -37 48 -37q9 11 13 27z" />
    <glyph glyph-name="uniFB5A" unicode="&#x680;" horiz-adv-x="3013" arabic-form="isolated" 
d="M3005 1443q0 -27 -16 -49t-35 -22q-25 0 -87 41q-65 -65 -120 -109q-147 -117 -199 -115h-54v37q18 21 153 119q112 82 112 114q0 11 -30.5 42t-30.5 40q0 43 50 133q59 108 119 108q28 0 52 -34t24 -89q0 -20 -4 -62q-4 -37 -4 -54q6 -7 49 -44q21 -19 21 -56zM2964 963
q0 -36 -33 -71q-30 -32 -49 -32q-12 0 -40.5 10.5t-41.5 10.5q-12 0 -50.5 -20.5t-51.5 -20.5q-32 0 -64 19q-39 22 -39 57q0 20 39.5 64t58.5 44q11 0 37.5 -15.5t39.5 -15.5q11 0 46.5 30.5t50.5 30.5q41 0 71 -32q26 -28 26 -59zM2432 1407q0 -29 -23 -76h-46
q-31 41 -59 41q8 0 -136 -102.5t-193 -101.5h-74v38q305 178 305 217q0 11 -25 49t-25 48q0 43 39 122q49 99 109 99q87 0 87 -132q0 -33 -5 -78q-5 -37 -4 -38q50 -73 50 -86zM3036 261q0 -166 -84 -237q-76 -64 -239 -64q-231 0 -264 135q-8 13 -23 28q-75 -47 -161 -89
q-41 -20 -91 -27q-83 -221 -249 -374q-45 -40 -104 -54q-45 -6 -90 -13q-108 -16 -83 -16q-44 0 -148 29q-114 33 -123 59q35 35 72 35q11 0 57.5 -5.5t60.5 -5.5q131 0 285 108q141 99 181 195q-4 30 -55 31q-37 -2 -74 -3q-50 4 -81 53q-26 41 -26 87q0 72 36 161
q46 116 118 116q50 0 123 -100q40 -59 78 -116q236 3 259 134l-92 691q20 92 54 148q20 0 34 -23q28 -152 72 -432q6 -47 17 -225q5 -93 11 -136q12 -88 39 -149q31 -69 177 -69q221 0 221 87q0 40 -36 56q-89 -82 -123 -82q-55 0 -108 57q-50 52 -50 97q0 68 47 169
q54 118 116 118q107 0 185 -166q61 -130 61 -208zM1173 1188q0 -26 -27 -47q-20 -15 -30 -15q-11 0 -45 31t-47 31q-10 0 -70 -64q-72 -75 -121 -107q-9 -5 -219 -95q-6 5 -18 12.5t-17 12.5q11 12 186 145q152 116 152 142q0 11 -41 60t-41 63q0 49 49 119q58 80 120 80
q28 0 61 -22q15 -43 17 -109v-98q29 -33 57 -66q34 -43 34 -73zM794 1218q0 -29 -24 -71q-18 4 -53 19q-27 11 -41 11q13 0 -122.5 -97t-220.5 -97q-26 0 -41 15q27 34 124 103q130 94 153 112q-4 14 -34 72q-28 52 -28 72q0 48 46 127q55 93 118 93q67 0 71 -127
q1 -70 2 -142q18 -19 37 -39q13 -17 13 -51zM1510 271q0 -113 -56 -197q-29 -45 -70 -61q-87 -34 -247 -76q-146 -39 -169 -39q-13 0 -177 -5.5t-176 -5.5q-102 0 -229 39q-139 42 -183 96q-34 44 -34 147q0 49 40 132q44 90 87 108h36q0 -4 5.5 -10t5.5 -21
q0 -10 -25.5 -62t-25.5 -65q0 -122 212 -172q117 -28 249 -28q161 0 383 47q232 49 283 103q3 21 -54 102q-60 84 -60 107q0 12 34 111h45q126 -97 126 -250zM1019 -322q0 -32 -54 -72q-47 -36 -64 -36q-52 0 -107 54q-2 48 25 92q29 49 72 49q23 0 73 -31q55 -33 55 -56z
M2850 1588q0 37 -38 50v-38q10 -12 38 -12zM2309 1583q-28 28 -61 10q18 -37 48 -37q9 11 13 27zM2820 402v46q-43 21 -59 21l-12 -56q35 -43 71 -11zM997 1373v38q-45 0 -50 -2q18 -36 50 -36zM1959 175v38q-5 0 -18.5 5.5t-18.5 5.5l-11 -38q5 0 24 -5.5t24 -5.5z
M670 1371q-18 48 -47 62l-13 -48q46 -23 60 -14z" />
    <glyph glyph-name="uniFB5B" unicode="&#x680;" horiz-adv-x="1114" arabic-form="final" 
d="M1162 1806q0 -57 -259 -177q-100 -45 -292 -129q0 2 -6 8.5t-6 20.5q0 52 107 106q60 25 121 50q88 42 287 151h36q0 -4 6 -10t6 -20zM1110 1468q0 -155 -198 -188q-11 -2 -48 -15q-32 -12 -45 -12q-24 0 -43 40q-13 29 -13 42q0 59 67 122q16 -28 14 -64q5 -5 13 -8.5
t12 -8.5q27 40 95 112q4 -20 29 -61q26 41 94 112q23 -48 23 -71zM1110 972q0 -9 -37 -56q-42 -51 -52 -89q-2 -108 -27 -348q-4 -23 -26 -89q-22 -61 -22 -74t36.5 -107.5t36.5 -106.5q0 -112 -55 -136q-68 -29 -207 -54q-114 -20 -148 -20q-15 0 -48 10q-42 14 -54 33
q0 41 22 149q8 2 16 2q20 0 48 -10t36 -10q44 0 118 99q67 91 67 115q0 13 -89 135q-4 6 -78 124q-18 27 -100 115q-103 108 -138 108q-11 0 -26 -5.5t-30 -5.5q-82 0 -136 62q-48 56 -48 127q0 10 5.5 43t5.5 53q4 0 17 6.5t28 6.5q56 0 203 -111q119 -90 176 -152
q65 -68 258 -353q9 0 20 18q5 31 50 408q2 14 -13 70q-5 17 -5 41q0 66 28 131q34 75 89 100q13 -68 0 -137q7 -12 46 -48q33 -31 33 -44zM883 118q7 7 6 25q-1 17 -9 25q-34 -34 -34 -50h37z" />
    <glyph glyph-name="uniFB5C" unicode="&#x680;" horiz-adv-x="4257" arabic-form="initial" 
d="M4295 1549q-86 -79 -241 -161q-127 -65 -254 -129q-15 12 -26 12v54q0 31 198 135q143 73 287 146h36v-57zM3722 1448q1 -77 -291 -168q-12 0 -38 5t-36 5l-13 13v36q20 26 84 34.5t90 44.5q-13 16 -51 16q-30 0 -131 -62q0 3 -6 9.5t-6 20.5q0 48 84 105q75 49 105 49
q11 0 87 -22q83 -25 122 -31v-55zM3651 957q0 -19 -44 -63t-64 -44q-19 0 -63 37t-44 60q0 25 34 66t58 41q30 0 78 -42q45 -40 45 -55zM3067 1561q0 -56 -241 -187q-181 -99 -277 -135q-14 14 -14 41q0 53 43 77q144 74 432 229h45q12 -1 12 -25zM4378 -281q0 -33 -44 -72
q-39 -36 -58 -36q-12 0 -53.5 25.5t-54.5 25.5t-54 -35.5t-54 -35.5q-43 0 -80 34q-32 31 -32 53q0 42 42 78q36 29 55 29q11 0 53 -25.5t55 -25.5q14 0 48 41t49 41q22 0 73 -35q55 -38 55 -62zM3078 977q0 -28 -34 -64q-31 -32 -48 -32q-13 0 -41.5 20.5t-40.5 20.5
q-13 0 -56.5 -41t-56.5 -41q-28 0 -64 25q-38 28 -38 57q0 31 42 68q38 34 50 34q11 0 40 -15.5t42 -15.5q16 0 58 46t54 46q35 0 66 -44q27 -38 27 -64zM2350 1227q0 -41 -33 -91h-31q-13 0 -55 31t-54 31q-280 -226 -355 -225h-64v48l168 106q148 95 148 117q0 28 -58 68
q-3 14 -3 40q0 72 51 135q55 69 129 69q46 -33 50 -99q7 -114 8 -118q18 -68 99 -112zM4255 256q0 -266 -348 -266q-37 0 -180 33q-14 3 -59 27q-39 21 -53 21q-12 0 -62 -19q-57 -23 -80 -29q-96 -23 -217 -23q-106 0 -154 13q-25 7 -91 39q-58 30 -72 30q-13 0 -60 -16
q-57 -19 -71 -23q-70 -15 -408 -41l32 -191q0 -44 -14 -104q-4 -17 -45 -60q-46 -46 -68 -46h-41q-82 0 -163 96q-65 79 -75 133q2 27 -16 80q-28 25 -77 81q-24 0 -77 -11q-59 -12 -82 -14q-13 -8 -26 -24q-84 -193 -168 -285q-109 -118 -254 -118q-84 0 -295 64v37
q7 2 163 2q13 0 68 19q69 23 89 28q101 26 169 92q26 25 125 155v25q-67 -1 -192 21q-17 9 -41 52t-24 63q0 13 13 34t14 29q21 128 88 183q18 15 49 15q55 0 121 -98q35 -58 70 -117q17 0 58 -2.5t63 -2.5q103 0 146 55q27 79 109 244q24 40 94 118q80 90 102 90
q39 0 67 -94q20 -73 20 -127q0 -45 -36 -125q-34 -70 -67 -138q24 -8 133 -8q81 0 208 19q143 22 203 50q-11 22 -11 52q0 102 97 231.5t169 129.5q58 0 95 -89q28 -69 28 -142q0 -68 -10 -90q-26 -57 -52 -113q39 -27 149 -27q147 0 197 38q-8 32 -5 91q98 301 223 301
q68 0 105 -96q27 -68 27 -130q0 -36 -19.5 -101.5t-31.5 -75.5q92 -37 159 -37q84 0 201 47q2 11 2 21q0 52 -63 122.5t-63 105.5q0 11 6 43t6 48q3 0 13.5 6t25.5 6q76 0 126 -145q38 -107 38 -162zM948 1372q0 -56 -233 -192q-157 -88 -313 -176h-35q-13 13 -13 30
q0 72 569 378q25 -24 25 -40zM794 765q-38 -120 -102 -120q-28 0 -68 23q-45 24 -45 49q0 17 30.5 70t46.5 53q36 0 138 -75zM1163 189q0 -193 -167 -302q-137 -91 -319 -91q-103 0 -198 70q-105 79 -105 191q0 167 139 332q5 -6 17.5 -13t17.5 -11q-5 -18 -42 -104
q-29 -68 -29 -87q0 -205 261 -205q96 0 203 41q140 54 140 143q0 45 -75 198q-21 23 -55 72q-24 46 -24 69q0 12 19 63.5t26 58.5q29 0 53 -32q50 -68 93 -186q45 -124 45 -207zM3742 319q3 7 3 18q0 86 -59 93q-27 -12 -58 -54q-28 -38 -28 -53q0 -20 16.5 -38.5
t34.5 -18.5q36 0 91 53zM2165 1363v46l-24 24q-36 -17 -36 -49q44 -21 60 -21zM3129 348q0 47 -77 123q-108 -67 -108 -133q0 -72 67 -72q20 0 64 23q54 28 54 59zM2300 374q0 17 -23 46q-11 16 -23 31q-136 -183 -136 -236q58 32 115 63q67 37 67 96zM2329 -203v36
q-8 13 -63 47q-60 38 -86 38h-64q3 -29 58 -85q58 -58 94 -58q9 0 61 22zM1567 145v38h-38v-38h38z" />
    <glyph glyph-name="uniFB5E" unicode="&#x67a;" horiz-adv-x="2500" arabic-form="isolated" 
d="M2419 1404q0 -39 -198 -175q-117 -78 -235 -156h-35q-7 5 -15 10t-8 20q0 52 53 88q374 250 383 249h55v-36zM1569 1620q0 -43 -26 -65q-65 -53 -430 -288q-8 5 -16 10.5t-8 20.5q0 72 226 224q180 122 240 144q14 -14 14 -46zM2481 208q0 -61 -45 -174q-31 -79 -51 -115
q-159 -269 -416 -269q-28 0 -121 15q-113 19 -144 39q0 48 45 48q13 0 41 -5t41 -5q180 0 354 150q154 131 194 264q4 6 -6 16q-55 -52 -70 -59q-7 -2 -47 -2q-66 0 -108 53q-35 45 -35 95q0 60 55 164q64 118 129 118q45 0 110 -103q50 -81 59 -117q15 -56 15 -113z
M1231 867q3 -70 -34 -101q-12 4 -46 24q-28 17 -42 17q-11 0 -65 -60q-64 -70 -91 -91q-53 -38 -141 -75q-74 -30 -147 -61q-18 0 -36.5 6.5t-20.5 6.5q127 90 389 291v27q-26 15 -53 30q-40 27 -40 64q0 44 36 111q48 88 117 88q56 0 75 -96l10 -100q28 -48 89 -81z
M730 991q0 -49 -102 -119q-78 -54 -106 -63q-47 -11 -135 -33l-65 12v37q60 25 183 95q-22 20 -61 20q-15 0 -54 -22q-46 -24 -58 -28v43q-1 35 73 84q68 46 95 46q-2 0 217 -32q13 -13 13 -40zM1826 208q0 -7 -35 -155q-13 -55 -60 -82q-23 -14 -85 -14q-13 0 -128 20.5
t-127 20.5q-32 0 -81 -14q-193 -54 -388 -51q-18 -63 -36 -127q-33 -105 -84 -105q-113 0 -141 200q-3 18 2 62q6 52 6 68q-13 8 -56 8q-60 0 -131 -31q-97 -41 -97 -109q0 -18 7 -38l71 -533q5 -34 -11 -75q-20 -48 -57 -63l-95 639q-2 74 35 161q39 92 102 146
q49 42 226 69q9 1 26 19.5t31 18.5q11 0 49 -42q42 -48 61 -58q100 -53 254 -53q9 0 51 6t59 6q14 8 34 25q2 98 47 236q3 6 84 105q78 93 78 119q0 11 -17 90q-18 92 -22 124q3 58 -6 174q-4 21 -27 68q-21 42 -21 56q0 118 87 209q31 -23 38 -69l10 -76q25 -10 80 -41
q-5 -32 -35 -118q-26 -78 -26 -90q0 -10 12 -69q12 -64 15 -95q3 -64 5 -128q7 -84 41 -125q27 -32 102.5 -82.5t103.5 -81.5q49 -55 49 -125zM2317 288v45l-33 33h-35q-23 -24 -23 -68q20 -24 51 -23q26 0 40 13zM1057 972q0 18 -23 38h-36q0 -18 22 -38h37zM1723 168
q-41 41 -130 85q-25 -75 -10 -111q15 0 46 -5.5t43 -5.5q35 0 51 37zM1487 238q0 13 -10.5 51.5t-10.5 55.5h-54q-39 1 -78 -107q0 -19 25.5 -42.5t51.5 -23.5q76 0 76 66z" />
    <glyph glyph-name="uniFB5F" unicode="&#x67a;" horiz-adv-x="2688" arabic-form="final" 
d="M2735 1718q0 -43 -23 -61q-54 -42 -256 -157q-88 -50 -188 -99q-15 14 -15 41q0 55 123 127q68 34 136 69q52 36 165 110h45q13 -13 13 -30zM2714 1189q-6 -31 -77 -57q-66 -24 -66 -69q0 -7 25 -136q27 -139 32 -196l55 -605q0 -30 -65 -118l-20 13q-10 122 -41 401
q-20 160 -75 470q-13 55 -13 88q0 7 20 96q-6 7 -20 7q-35 0 -75 -40h-36q-6 11 0 31q8 25 8 34q0 12 -25.5 46t-25.5 47q0 17 74 104q82 96 126 96q33 0 62 -33q24 -29 24 -49q0 -28 -22.5 -55t-43.5 -27q-13 0 -36 16q-31 22 -34 25l-18 -18q0 -6 3 -15q57 -28 116 -28
q9 0 39 10t48 10q38 0 61 -13v-35zM2130 1262q0 -56 -165 -142q-150 -78 -189 -78h-52l-12 13v37q66 34 194 110q-28 35 -77 35q-15 0 -63 -34q-69 -50 -82 -59q-14 2 -14 26q0 30 82 104.5t113 74.5q11 0 100 -22q97 -24 142 -29q23 -24 23 -36zM1599 1344q0 -66 -62 -66
q-11 0 -26 5t-25 5q-13 0 -54 -50q-49 -60 -61 -69q-30 -25 -238 -126h-35q0 4 -5.5 9.5t-5.5 20.5q0 13 114 101q139 108 183 151q0 23 -48 49.5t-48 55.5q0 8 3 17v12q0 58 59 122q63 67 129 71q48 -26 54 -92q7 -76 -4 -132q70 -76 70 -84zM1005 1278q0 -25 -23 -71h-36
q-22 28 -49 40q-190 -156 -347 -256l-67 13q15 54 128 129q125 82 168 159q-81 73 -81 119q0 23 33 99q8 19 62 69q59 57 89 57q61 0 70 -112q1 -80 4 -158q2 -14 27 -45q22 -28 22 -43zM687 1298q0 -15 -23 -60q-22 0 -40 4.5t-29 4.5q-1 0 -108 -89q-118 -99 -226 -136
l-14 13v37q101 81 256 231q-82 48 -82 98t43 126q51 88 105 88q44 0 63 -44q11 -27 5 -90q-7 -70 2 -105q0 -5 24 -33.5t24 -44.5zM2356 310q0 -29 -50 -95q-106 -142 -404 -234q-42 -13 -109 -13h-82q-48 0 -134 49q-43 29 -87 57q-9 20 -47 171q-32 132 -44 132t-52 -35
q-53 -47 -65 -55q-8 -32 -9 -26q14 -58 14 -110q0 -191 -168 -303q-142 -96 -325 -96q-130 0 -225 61q-117 75 -117 216q0 91 68 212q16 29 32 59q27 40 60 46l24 -25q-24 -49 -50 -97q-22 -50 -22 -104q0 -204 271 -204q108 0 206 39q137 52 137 156q0 62 -34 146
q-5 13 -39 69q-29 47 -29 61q0 30 55 112q13 -4 46 -29q28 -22 42 -22q84 0 152 87.5t79 87.5q33 0 51 -113q9 -68 18 -137l2 -8q24 -94 48 -134q14 -22 108 -70h26q5 227 145 384q21 24 78 42q48 15 72 15q41 0 109 -39q72 -40 105 -88v-34q-5 -8 -9.5 -15.5t-20.5 -7.5
q-12 0 -56 30.5t-57 30.5q-46 0 -135 -52q-100 -58 -100 -112q0 -59 59 -100q48 -33 89 -33q71 0 212 77q75 43 149 86q0 -3 6.5 -12t6.5 -23zM892 673q0 -29 -43 -68q-38 -34 -49 -34q-28 0 -68 26q-45 30 -45 61q0 18 30 65q35 53 62 53q37 0 77 -47q36 -40 36 -56z
M1599 -319q0 -32 -54 -70q-47 -32 -64 -32q-11 0 -41 20.5t-46 20.5q-13 0 -51.5 -31t-51.5 -31q-31 0 -69 44q-33 38 -33 48q0 24 43 60q40 32 49 32q13 0 48.5 -15.5t48.5 -15.5q12 0 45.5 36t46.5 36q23 0 76 -43t53 -59zM1444 1485q0 7 -15 16.5t-24 9.5q0 -11 5 -22
t5 -15q20 0 29 11zM860 1422q0 18 -5.5 37.5t-5.5 21.5q-14 0 -31 -14.5t-17 -22.5q42 -22 59 -22zM562 1431v39h-37q0 -5 37 -39z" />
    <glyph glyph-name="uniFB60" unicode="&#x67a;" horiz-adv-x="1283" arabic-form="initial" 
d="M1275 1840q-1 -39 -25 -90q-211 -139 -489 -277h-36q12 98 63 128q138 73 420 239h67zM1225 1411q0 -30 -19 -69q-26 -52 -67 -62q-24 -3 -81 -16q-14 -5 -46 -28q-29 -19 -43 -19q-29 0 -50 25.5t-21 55.5q0 91 73 133q2 -26 16 -72q36 9 55.5 59t46.5 53q5 -26 28 -70
q16 20 37 61t35 62q36 -54 36 -113zM1265 980q1 -4 1 -9q0 -20 -29.5 -67.5t-31.5 -61.5q1 -140 -25 -420q-5 -28 -37 -116q-31 -81 -31 -93q0 -13 31 -97.5t31 -97.5t-18 -53q-26 -57 -28 -65q-261 -55 -348 -55q-139 0 -139 102q0 25 22 90q16 6 56 0q51 -8 56 -8
q54 0 127 59q78 63 78 120q0 49 -196 288.5t-250 244.5q-139 14 -189.5 56.5t-50.5 142.5q0 92 61 92q69 0 237 -147q120 -105 167 -162q63 -89 181 -256q33 -40 97 -132q29 14 41 68q14 61 14 154v335q0 10 -15 50t-15 54q0 59 84 199h36q19 -28 19 -67q0 -8 -1 -24.5
t-1 -24.5q0 -60 66 -99zM1042 45q0 5 -5 24t-5 24q-18 0 -38 -22v-36q5 0 24 5t24 5z" />
    <glyph glyph-name="uniFB61" unicode="&#x67a;" horiz-adv-x="4352" arabic-form="medial" 
d="M4340 1245q0 -38 -35 -72q-7 3 -65 39q-38 23 -54 23q-307 -256 -395 -256h-32l-23 26q119 87 348 266q-6 14 -52 66q-40 46 -40 61q0 77 60 137q59 58 126 58h16q53 -64 53 -148q0 -30 -7 -71q18 -24 70 -67q30 -24 30 -62zM3838 1307q0 -127 -375 -216l-24 25
q7 30 74 64q99 50 100 50q-11 25 -51 25q-17 0 -96 -50h-37v34q0 29 64 81q52 41 82 54q11 4 38 4q13 0 89 -17q87 -19 124 -25q12 -13 12 -29zM4452 -254q0 -26 -33 -67q-35 -41 -63 -41q-14 0 -56.5 25.5t-56.5 25.5q-13 0 -56.5 -41t-56.5 -41q-22 0 -64 34
q-44 35 -44 58q0 48 88 102q10 0 44 -20.5t48 -20.5q13 0 56 41t57 41q31 0 84 -36.5t53 -59.5zM3910 -280q0 -32 -44 -69q-38 -34 -54 -34q-41 0 -106 63q-3 19 28 78q33 64 58 64q31 0 76 -43q42 -40 42 -59zM2528 1117q0 -42 -34 -77q-20 5 -73 35q-49 27 -62 27
q-10 0 -18 -3q-56 -71 -112 -117q-49 -40 -131 -84q-79 -42 -98 -42h-53l-13 12v27q107 76 317 243q-28 33 -56 67q-15 21 -15 61q0 57 43 125q51 79 116 79q77 0 77 -116q0 -27 -5 -69q-4 -37 -4 -43q4 -4 75 -66q46 -39 46 -59zM4350 333q0 -58 -31 -119q-33 -56 -67 -112
q-46 -24 -91 -24q-13 0 -102.5 30.5t-102.5 30.5q-3 0 -87 -46q-89 -48 -106 -54q-113 -37 -236 -43q-83 -4 -420 -4q-130 0 -204 -20q-23 -6 -55 -64t-62 -65q-2 40 -6 126q-37 10 -107 51q-24 36 -72 96q-12 13 -48 13q-39 0 -119 -26q-89 -28 -99 -53
q-12 -56 -36.5 -161.5t-143 -209t-205.5 -103.5q-78 0 -191.5 50.5t-121.5 88.5q17 36 56 36q13 0 87.5 -20.5t87.5 -20.5q80 0 213 88q145 96 156 184q2 14 -11 50t-13 51q0 43 31 114q15 35 68 47l66 10q6 2 193 41q25 18 45 18h53q1 -5 4 -57q2 -40 20 -57
q50 -50 177 -50q44 0 59 12q128 114 379 322q33 25 110 25q49 0 130 -31q96 -36 96 -77q0 -12 -35 -94q-47 -113 -58 -141q7 -5 42 -5q138 0 278.5 76.5l140.5 76.5q13 0 86.5 -31t87.5 -31q72 0 72 46q0 13 -20.5 62t-20.5 61q0 -14 33 117h37q63 -118 63 -204zM3377 -213
q0 -53 -101 -104q-58 -24 -116 -49q-104 -49 -310 -150q-14 12 -25 12v54q0 36 195 130l300 142h34q23 -24 23 -35zM1094 1398q0 -53 -175 -163q-93 -53 -185 -106q-85 -52 -259 -161q-36 22 -36 46q0 53 64 103q38 19 113 58q164 84 399 239q22 15 66 15q1 -2 3 -3
q10 -9 10 -28zM1832 272q0 -151 -97 -325q-109 -195 -256 -235q-84 -23 -195 -23q2 0 -248 31l-24 26q37 46 77 46q14 0 36.5 -5.5t35.5 -5.5q161 0 311 98q174 115 267 327l-7 36q-68 -72 -100 -72q-64 0 -115 66q-44 57 -44 102q0 44 50 155q57 127 104 127
q100 0 161 -159q44 -113 44 -189zM818 697q0 -29 -42 -63t-66 -34q-21 0 -106 52q0 35 18 83q24 60 58 60q32 0 85 -36.5t53 -61.5zM1156 211q0 -192 -157 -308q-135 -102 -309 -102q-122 0 -202 61q-90 68 -90 190q0 82 95 279q7 15 67 32q0 -3 6 -11.5t6 -23.5
q0 -13 -36 -94.5t-36 -94.5q0 -79 75 -131q64 -43 135 -43q91 0 198 41q145 57 145 154q0 43 -23 105q-15 37 -66 124q-43 75 -43 88q0 39 55 123q3 -3 41 -26q48 -54 93.5 -172.5t45.5 -190.5zM4154 1420q0 10 -2 27q-11 16 -47 -2q24 -25 49 -25zM2332 1277v37l-48 11
q0 -15 16.5 -31.5t31.5 -16.5zM3490 299q-89 45 -122 45q-66 0 -135 -55q-18 -15 -121 -116q9 0 24 -13q92 8 202 46q126 45 152 93zM1667 366q0 48 -23 69h-47q0 -58 23 -80z" />
    <glyph glyph-name="uniFB62" unicode="&#x67f;" horiz-adv-x="2046" arabic-form="isolated" 
d="M1568 1411q0 -50 -177 -163l-184 -106q-155 -107 -341 -223q-11 7 -22 12q-14 9 -14 24q0 83 198 181q65 42 194 123q109 71 331 193q15 -15 15 -41zM1875 -68q0 -18 -40 -63t-58 -45q-24 0 -69 30q-49 30 -49 52q0 24 39.5 68t53.5 44q17 0 70 -34t53 -52zM2028 295
q0 -30 -37 -68q-33 -34 -50 -34q-12 0 -60.5 30.5t-62.5 30.5q-23 0 -113 -27q-107 -32 -171 -69q-51 -29 -108 -127q-11 -21 -11 -79q0 -13 20 -105t20 -105q0 -43 -29 -109q-32 -75 -63 -75q-62 0 -130 151l-21 47q-1 4 -17 124q-2 24 6 78q9 61 9 67v38l-17 17
q-231 -102 -445 -102h-147q-18 0 -74 18q-64 22 -101 46q-13 9 -43 50q-32 46 -42 165q-3 93 -5 186q-5 107 -41 511q-2 15 -20 57t-18 52q0 35 54 142q23 0 54 -21q26 -59 31 -95q54 -372 52 -748q-1 -189 332 -189q269 0 432 94q21 11 79.5 71.5t86.5 79.5q37 -17 37 -51
q0 -48 -44 -130q-34 -65 -70 -132l7 -45q34 64 68 130q49 85 143 141q25 16 166 59q155 49 205 49q37 0 87.5 -44t50.5 -79zM2110 -278q0 -47 -82 -99q-52 -29 -104 -57q-101 -65 -270 -141l-25 25q6 38 35 93q84 61 239 143q145 77 166 77q41 0 41 -41z" />
    <glyph glyph-name="uniFB63" unicode="&#x67f;" horiz-adv-x="2357" arabic-form="final" 
d="M2255 1382q1 -39 -203 -170q-178 -114 -263 -151q-14 2 -14 25q0 55 36 82q158 121 420 271q15 -11 24 -11v-46zM1601 1680q0 -50 -143 -148q-82 -53 -166 -106q-63 -44 -188 -119q-14 14 -14 41q0 48 14 59q148 104 439 308h35q23 -23 23 -35zM2359 251q0 -135 -77 -277
q-86 -161 -233 -241q-62 -34 -202 -34q-195 0 -245 44v45q23 24 55 24q13 0 41.5 -5.5t40.5 -5.5q140 0 244 61q114 66 240 234q21 29 44 97q8 8 -16 8q-8 0 -47.5 -26t-59.5 -26q-75 0 -114 66q-29 50 -29 103q0 56 40 156q50 126 113 126q101 0 161 -156q44 -111 44 -193z
M1151 918q0 -26 -23 -72h-47q-31 40 -59 40q-294 -255 -373 -255q-15 0 -25.5 5.5t-14.5 5.5v48q214 148 307 233v29q-55 39 -65 49q-28 30 -28 70q0 41 46 107q54 77 113 77q65 0 82 -44q4 -8 9 -144q2 -32 8.5 -51t39.5 -54q30 -32 30 -44zM639 1050q0 -59 -156 -147
q-138 -78 -168 -78h-72l-24 25q23 45 92 73q78 32 103 60q-26 16 -62 16q-38 0 -61 -17q-48 -34 -68 -44q-14 14 -14 35q0 65 70 116q59 43 104 43q12 0 101 -17q101 -21 144 -25q0 -4 5.5 -14.5t5.5 -25.5zM1724 262q0 -93 -40 -178q-53 -108 -145 -108q-12 0 -112 25
t-112 25q-10 0 -175 -30.5t-179 -30.5q-11 0 -42.5 5.5t-44.5 5.5q-18 0 -39 -28q-11 -51 -21 -102q-17 -64 -67 -105q-50 11 -104.5 78t-54.5 118q0 18 9 45.5t9 39.5q0 25 -25 46q-249 -4 -249 -185l61 -553q0 -95 -32 -172q-7 0 -24 -12q-28 37 -41 161l-30 193l-27 428
q0 32 54 157q25 56 102 111q32 22 94 42q39 4 77 9q45 9 66 55q54 -46 159 -131q23 -18 108 -32q64 -10 88 -10q126 0 140 37q5 34 16 92q23 111 73 182q27 39 151 135q-18 238 -36 388q-1 13 -19 55.5t-18 57.5q0 41 74 189q25 1 45 -55q24 -63 75 -79q-5 -67 -29 -112
q-21 -41 -21 -81q0 -195 53 -373q9 -28 81 -95q102 -92 116 -107q36 -39 36 -101zM2195 357q0 45 -47 69q-35 -35 -35 -52q0 -15 14 -25q10 -7 19 -15q26 0 49 23zM986 1072v38q-4 0 -21 5t-29 5q17 -48 50 -48zM1632 184q-16 36 -63 77q-43 36 -67 41q-2 -2 -34 -98
q67 -44 103 -44q13 0 61 24zM1386 272q0 14 -15 48q-19 45 -41 45q-19 0 -53 -34t-34 -53q0 -20 34.5 -43.5t57.5 -23.5q18 0 34.5 22t16.5 39z" />
    <glyph glyph-name="uniFB64" unicode="&#x67f;" horiz-adv-x="2764" arabic-form="initial" 
d="M2722 1419q0 -50 -122 -131q-73 -44 -146 -87q-57 -39 -166 -109h-46q0 4 -5.5 14.5t-5.5 25.5q0 38 188 163q128 82 256 165h34q13 -14 13 -41zM1842 1588q0 -46 -53 -84q-399 -280 -435 -278h-55v54q0 23 94 86q51 32 103 65q17 12 288 193h35q23 -24 23 -36zM2763 206
q-39 -60 -179 -95q-147 -38 -223 -134h-37q0 15 15 57.5t15 53.5t-31 58t-31 60q0 52 104 151t152 99q37 0 67 -43q26 -35 26 -53q0 -30 -44 -77q-38 -41 -49 -41q-16 0 -79 61q-14 3 -44 -27q16 -65 108 -65q12 0 46 10t48 10h123q4 -10 13 -25zM2159 324q0 -132 -62 -255
l-27 -11l-116 1003q0 27 26 97.5t42 76.5q12 -7 30 -24q26 -161 67 -525q40 -337 40 -362zM1648 877q0 -23 -36 -68.5t-52 -45.5q-7 0 -107 64q0 33 18 83q23 69 59 69q31 0 74.5 -37.5t43.5 -64.5zM1002 1316q0 -3 -34 -71q-81 41 -84 41q-13 0 -51 -43q-50 -59 -58 -66
q-25 -23 -227 -136h-46v37q275 216 275 243q0 10 -35.5 52.5t-35.5 60.5q0 52 43 125q52 87 117 87q11 0 21 -3q42 -35 46 -116q5 -101 10 -111q6 -14 35 -50q24 -29 24 -50zM1852 257q0 -261 -353 -261q-79 0 -127 43q0 72 32 140q59 -9 136 -9q20 0 98 24q83 26 102 43
q-2 69 -78 142q-40 38 -158 121q6 43 33 130h52q29 1 118 -66q47 -36 96 -139.5t49 -167.5zM1299 267q0 -156 -68 -199l-106 931q0 148 57 215q12 -12 31 -34q21 -187 68 -657q18 -195 18 -256zM685 1337q0 -49 -34 -56q-31 -4 -61 -9q-17 -8 -38 -40q-23 -36 -32 -45
q-44 -38 -106 -76q-65 -39 -84 -39h-75q28 33 145 147q90 88 90 102q0 11 -35.5 51.5t-35.5 57.5q0 41 38 106q47 80 108 80q13 0 25 -3q40 -49 40 -112q0 -11 -1 -28t-1 -24q0 -21 7 -33l30 -36q20 -26 20 -43zM685 743q0 -26 -34 -69t-58 -43q-9 0 -91 51q-3 6 -3 16
q0 67 67 138l72 -36q47 -24 47 -57zM1013 242q0 -194 -146 -305q-126 -95 -300 -95q-120 0 -197 75q-74 72 -74 181q0 86 42 183t95 134q47 0 47 -30q0 -9 -28 -66q-32 -65 -41 -95q-3 -7 -3 -44q0 -83 78 -129q59 -35 127 -35q91 0 190 45q117 54 117 129q0 68 -33 136
q-90 178 -90 197q0 20 45 87q35 -16 84 -64q87 -178 87 -304zM551 1464l-40 13v-16l34 -12zM850 1481l-40 13v-15l34 -13z" />
    <glyph glyph-name="uniFB65" unicode="&#x67f;" horiz-adv-x="1060" arabic-form="medial" 
d="M1126 1888q0 -53 -104 -123q-73 -42 -145 -85q-195 -125 -310 -192q-26 26 -26 37q0 63 103 131q78 45 156 91q170 105 301 172q7 -5 16 -10.5t9 -20.5zM1053 1499q0 -40 -25 -93q-29 -58 -60 -68q-37 -9 -102 -27q-12 -4 -49 -22q-31 -15 -45 -15q-67 0 -67 87
q0 23 35 105q6 6 33 22q11 -31 31 -71q31 35 103 102q5 -10 14.5 -30.5t15.5 -30.5q26 26 69 112q47 -27 47 -71zM1074 1057q-7 -42 -47 -89.5t-42 -58.5q-9 -104 -37 -297q-11 -50 -52 -166q-37 -103 -37 -114q0 -5 31 -82.5t31 -122.5q0 -131 -66 -150q-108 -34 -314 -34
q-52 0 -89 34q-33 30 -33 68q0 47 44 112q8 0 36.5 -15t41.5 -15q46 0 113 80q62 76 62 109q0 48 -143 283q-154 255 -231 255q-11 0 -30.5 -5t-30.5 -5q-159 0 -159 189q0 118 61 118q19 0 132 -70q151 -95 273 -291q98 -168 195 -335q53 47 62 108q35 221 35 256v284
q0 27 86 170q28 -16 28 -61v-14q-1 -10 -1 -15q0 -82 81 -126zM796 138q0 5 -5 24.5t-5 24.5q-18 0 -38 -22v-36q5 0 24 4.5t24 4.5z" />
    <glyph glyph-name="uniFB66" unicode="&#x679;" horiz-adv-x="3832" arabic-form="isolated" 
d="M3742 1484q0 -37 -15 -55q-21 -25 -70 -52q-75 -42 -81 -45q-144 -95 -334 -180q0 2 -6 8.5t-6 20.5q0 71 217 200q182 108 281 138q14 -14 14 -35zM3086 1267q1 -52 -174 -145q-161 -84 -200 -84h-52l-23 24q0 27 79 68q110 58 136 78q-9 35 -47 35q-30 0 -61 -22
q-82 -59 -82 -60q-15 15 -15 31q0 65 72 123q65 51 117 51q36 0 250 -54v-45zM3916 -236q0 -35 -44 -73q-38 -35 -58 -35q-11 0 -42 15.5t-45 15.5q-13 0 -54 -25.5t-54 -25.5q-37 0 -91 52q-5 13 -5 27q0 41 31 78t65 37q12 0 41.5 -20.5t40.5 -20.5t50.5 36t57.5 36
q39 0 76 -42q31 -35 31 -55zM2533 1380q1 -54 -251 -211q-218 -135 -310 -171v54q-1 42 169 149q91 52 180 105q132 96 187 121q15 -11 25 -11v-36zM1827 1200q0 -76 -22 -110h-43q-12 0 -33.5 15t-34.5 15q-15 0 -22 -3q-156 -172 -371 -263q-17 0 -35 6t-21 6
q26 70 140 145q142 93 186 145q-17 28 -58 68q-24 23 -24 55q0 67 45 132q50 77 125 77q3 0 44 -15q34 -57 40 -102q2 -50 5 -101q19 -32 79 -70zM3835 275q0 -220 -221 -220q-22 0 -81 28.5t-83 53.5q-27 -33 -82 -89q-31 -23 -97 -23q-13 0 -56.5 20.5t-55.5 20.5
q-13 0 -27 -14q-20 -20 -27 -24q-41 -24 -95 -24q-48 0 -94 13q-11 3 -50 32q-36 26 -50 26q-13 0 -38 -16q-29 -19 -43 -21q-28 -7 -194 -17l-52 -122q-44 -99 -88 -99q-51 0 -101 68q-42 60 -50 119v64q0 39 -18 55q-23 -18 -79 -58q-71 -44 -152 -44h-45q-93 0 -165 56
t-81 56q-16 0 -24 -9.5t-15 -17.5q-66 -32 -204 -78q-23 -60 -74 -168q-160 -279 -441 -279q-112 0 -229 74v37q7 2 163 2q227 0 440 273q0 19 -17 30q-78 2 -133 27q-86 37 -86 166q0 46 36.5 120t68.5 95q22 15 108 15q54 -64 135 -206q8 -9 31 -9q18 0 69.5 22.5
t63.5 35.5q-13 51 -99 35q-14 13 -14 30q0 80 106 148q89 57 151 57q74 0 148 -41q87 -49 87 -123q0 -16 -21 -63q-23 -51 -41 -57q12 -33 45 -40q14 -4 73 -4q77 0 184 66.5t98 66.5q-10 0 100.5 -61.5t216.5 -61.5t167 43q32 40 107 101q1 -47 5 -136q24 -18 101 -18
q94 0 130 46q64 82 122 117q15 -50 -8 -126q18 -16 47 -16q60 0 103 79q45 86 83 95q3 -6 3 -87q0 -67 169 -67q67 0 67 51q0 39 -24 96q-8 20 -88 118q-72 89 -72 109q0 51 43 138h36q208 -262 208 -466zM773 1493q0 -100 -351 -288q-93 -50 -175 -105h-46q0 4 -6 10t-6 20
q0 52 33 78q84 64 379 231q50 31 159 90q0 -4 6.5 -12.5t6.5 -23.5zM537 792q0 -31 -44 -69q-37 -33 -47 -33q-6 0 -92 53q13 43 27 85q25 57 59 57q37 0 69 -34q28 -31 28 -59zM906 245q0 -305 -341 -408q-56 -17 -73 -17q-333 0 -333 286q0 65 31 147q37 97 95 139h35
q13 -1 13 -25q0 -12 -31 -91.5t-31 -91.5q0 -190 221 -190q69 0 81 2q36 8 134 60q117 62 117 96q0 59 -71.5 218.5t-71.5 170.5q0 51 67 118q67 -75 114 -201q44 -120 44 -213zM1653 1332q-10 10 -12 22h-36q-6 -11 -6 -21q0 -16 13 -27q8 -6 15 -12q26 27 26 38zM1253 179
v47q-10 12 -49 12q19 -59 49 -59z" />
    <glyph glyph-name="uniFB67" unicode="&#x679;" horiz-adv-x="1683" arabic-form="final" 
d="M1345 1391q0 -58 -143 -147l-156 -86q-67 -45 -207 -130h-34q-13 13 -13 30q0 54 35 82q89 48 264 156q39 28 135 72q37 25 105 59q14 -14 14 -36zM823 1545q0 -79 -177 -161q-147 -69 -202 -69q-12 0 -64.5 15t-63.5 15q-21 0 -102 -82q-16 16 -16 31q0 30 51 100
q54 74 87 74q14 0 72.5 -15t71.5 -15q83 0 170 48q79 48 158 94q15 -14 15 -35zM1663 239q0 -36 -23 -69t-49 -33q-12 0 -37.5 25.5t-65.5 25.5q-73 0 -187 -44q-94 -37 -158 -96q-76 -72 -72 -151q2 -31 16 -100q13 -67 13 -101q0 -25 -5 -46q-12 -57 -113 -157
q-66 37 -103 150q-33 99 -33 217q0 87 19 147q-31 5 -100 -3q-81 -10 -80 -10q-131 0 -186 66q-23 28 -41 108q-17 70 -18 117q0 30 -10 98q-10 64 -10 95q0 55 -11 198q-12 164 -14 214q0 24 -16.5 88t-16.5 75q0 14 54 148q42 0 55 -43q45 -154 45 -268v-319
q0 -173 64 -345q10 -29 46 -46q46 -23 115 -23q101 0 166 43q29 20 68 74q45 67 66 87h47v-46q0 -38 -65 -144t-65 -192q0 -23 4 -46q29 58 79 156q56 104 227 187q155 76 266 76q129 0 129 -113zM1570 -180q0 -26 -41.5 -64t-60.5 -38q-46 0 -112 63q0 33 28 85
q31 57 58 57q38 0 85 -43q43 -39 43 -60zM1774 -371q2 -35 -33 -51q-375 -188 -413 -188h-52q-13 14 -13 31q0 34 25 67q72 28 259 120q160 79 173 78h54v-57z" />
    <glyph glyph-name="uniFB68" unicode="&#x679;" horiz-adv-x="80" arabic-form="initial" 
d="M456 1970q-2 -14 -22.5 -30.5t-39.5 -16.5q-17 0 -39 22t-22 39q0 52 51 52q39 0 72 -66zM640 1795q-23 -36 -101 -62q-73 -25 -140 -25q-106 0 -173 46q-77 52 -77 153q0 35 25 111q34 102 36 113q-15 13 -58 -13q-14 1 -14 25q0 19 25 52t50 41q47 14 107 18
q41 1 109 -1q83 -4 108 -4v-36q1 -47 -125 -68q-108 -36 -144.5 -74.5t-36.5 -122.5q0 -102 97 -134q44 -14 148 -14q10 0 59 11t70 12q24 -6 35 -28z" />
    <glyph glyph-name="uniFB69" unicode="&#x679;" horiz-adv-x="3842" arabic-form="medial" 
d="M3809 1641q0 -21 -17 -53q-19 -34 -38 -34q-12 0 -56 30.5t-57 30.5q6 0 -170 -127.5t-220 -126.5h-45v37q15 18 45 49q76 49 153 98q139 96 139 132q0 14 -16 27q-28 23 -31 27q-4 12 -4 38q0 60 57 131q59 73 117 73q73 0 73 -105q0 -73 -19 -123q7 -12 51 -55
q38 -37 38 -49zM3849 1240q1 -22 -52 -50q-79 -41 -80 -41l72 -486q41 -296 41 -445q0 -154 -44 -198h-36q-12 208 -57 504q-20 117 -42 234q-27 152 -33 279q0 4 14 20.5t14 30.5v29q-11 5 -37 -3q-31 -10 -41 -10h-44q0 4 4.5 24t4.5 32q0 13 -25.5 46t-25.5 46
q0 40 62 106q67 73 128 73q26 0 53 -16q34 -21 34 -50q0 -14 -17 -37q-20 -29 -25 -43q20 0 66 1h66v-46zM2857 1758q-2 -38 -26 -90q-74 -53 -509 -307h-37v78q77 69 249 165q137 77 276 154h47zM3318 919q0 -73 -62.5 -139t-121.5 -66q-29 0 -57 34q-25 30 -25 48
q0 47 50 148q59 119 119 119q44 0 75 -64q22 -49 22 -80zM3513 218q0 -127 -112 -308q-96 -154 -177 -215q-33 -25 -72 -42q-56 -24 -156 -24q18 0 -94 18q-50 5 -102 10q-72 12 -106 37q0 25 13 38q83 5 247 23q119 20 252 123q142 112 195 245q-20 0 -62 -11.5t-51 -11.5
q-48 0 -98 62q-46 57 -46 97q0 69 40 156q53 115 134 115q93 0 151 -134q44 -99 44 -178zM2478 841q0 -52 -101 -117q-76 -48 -137 -68q-41 -13 -130 -13q-13 0 -66.5 10.5t-66.5 10.5q-12 0 -42 -27q-37 -33 -59 -45v54q-2 22 43.5 86t67.5 64q11 0 73.5 -20.5t75.5 -20.5
q59 0 152 43q90 42 143 89h47v-46zM2356 402q0 -115 -64 -158q-14 71 -52 198q-4 7 -34 56q-24 39 -24 53q0 36 45 81q129 -56 129 -230zM1526 1588q0 -42 -235 -181q-150 -85 -301 -169h-36v78l535 319h37v-47zM2837 279q-17 -53 -34 -105q-27 -73 -71 -101
q-83 -53 -156 -62q-190 -23 -281 -23q-181 0 -275 58q-38 24 -56 24q-53 -68 -108 -88q-39 -14 -125 -14q-182 0 -232 84q-14 36 -50 120q-132 -125 -340 -191q-169 -54 -330 -54q-157 0 -257 60q-132 79 -132 251q0 42 43 122q38 68 73 109q38 0 38 -26q0 -11 -20.5 -65
t-20.5 -68q0 -124 124 -181q83 -39 193 -39q143 0 341 59q273 81 273 212q0 42 -13 215q-9 96 -40 295q-28 186 -28 192q0 49 54 122q40 -14 57 -103q9 -74 18 -146l36 -408q25 -252 82 -338q26 -39 65 -47q75 -12 113 -12q91 0 161.5 61.5t88.5 61.5q13 0 28 -19
q21 -24 31 -30q91 -53 172 -53h127q53 0 300 53q14 12 39 34q-5 121 -45 350q-53 309 -62 376q-1 15 -25 54q-22 37 -22 48q0 65 95 230h36q6 -60 12.5 -119.5t70.5 -74.5q-16 -97 -50 -190zM2254 -248q0 -17 -18 -43.5t-36 -34.5q-81 -29 -161 -58q-124 -46 -188 -88h-35
l-24 25q52 72 52 97q0 10 -20.5 38.5t-20.5 43.5q0 54 75 120q72 64 124 64q86 0 86 -59q0 -34 -29 -88q15 -10 38 -10q22 0 65 10q47 13 68 14q7 -5 15.5 -10t8.5 -21zM2356 -401q0 -57 -106 -107l-132 -50q-78 -34 -237 -108h-45q-12 0 -12 24q0 63 240 167
q168 73 277 104q15 -14 15 -30zM1158 484q0 -18 -32 -76q-33 -61 -62 -89q-15 -16 -69 -35.5t-77 -19.5q-104 0 -159 96q0 18 6 36.5t6 20.5q102 -51 131 -51q44 0 71 26q-5 5 -73 45q-39 23 -39 68q0 50 77 160q84 121 143 121q20 0 43.5 -21t23.5 -40q0 -17 -37 -70
t-50 -53q-10 0 -51 21l-16 -18q10 -36 90 -55q74 -18 74 -66zM3205 860l-13 69q-30 -16 -47 -33v-47zM3348 297v36q-31 32 -31 42h-38q-23 -46 -22 -57q34 -34 61 -34q17 0 30 13zM1986 -225q0 7 -14.5 17.5t-22.5 10.5l-12 -28h49zM3650 1832q-9 14 -35 14l-23 -28
q6 0 25 -11t24 -11q9 19 9 36z" />
    <glyph glyph-name="uniFB6A" unicode="&#x6a4;" horiz-adv-x="4290" arabic-form="isolated" 
d="M4422 1668q0 -45 -26 -66q-16 -13 -274 -168q-46 -34 -144 -98h-56q7 44 34 101q143 87 429 266q37 0 37 -35zM3972 1693q0 -73 -94.5 -159t-167.5 -86q-11 0 -35.5 10t-35.5 10q-31 0 -123 -92l-25 26q17 34 35 68q28 53 70 76q53 29 113 47q34 49 69 97q74 96 117 96
q38 0 60 -37q17 -28 17 -56zM4924 1488q0 -21 -17 -63q-19 -50 -40 -66q-292 -195 -867 -590q-57 -41 -90 -105q0 -9 18 -23q199 -87 278 -163q93 -89 93 -223q0 -271 -363 -271q-109 0 -154 52q-37 41 -44 133l-6 178q-19 186 -39 373q-38 381 -38 507q0 112 43 168h37
q40 -215 38 -342q-2 -206 32 -303q3 0 15 3q35 44 115 127q172 140 941 639h34q14 -13 14 -31zM3511 1657q0 -58 -127 -128q-113 -61 -159 -61q-15 0 -31 5.5t-19 5.5v37q40 26 122 81q-7 25 -47 25q-15 0 -52 -23q-54 -34 -63 -38q-1 4 -1 10q0 47 54 105t103 58
q46 0 125 -21q95 -26 95 -56zM2692 1914q0 -65 -102 -122q-73 -36 -146 -71q-71 -46 -260 -140q-8 4 -16 9.5t-8 20.5q0 52 14 61q219 135 503 277q15 -14 15 -35zM2672 1391q0 -16 -20.5 -41.5t-33.5 -32.5q-29 -13 -135 -38q-91 -22 -143 -56h-35q-11 62 8 76
q-62 55 -62 77q0 41 86 123q82 82 119 82q26 0 78 -65q5 -40 -26 -103q15 -9 150 3q14 -1 14 -25zM3356 1140q0 -68 -23 -119q-20 -17 -45 -61q-4 -92 -17 -276q-5 -58 -32 -192q-25 -126 -25 -135q0 -13 30.5 -115.5t30.5 -114.5q0 -58 -32 -120q-88 -21 -242 -44
q-134 -20 -161 -20q-72 0 -117 43q-5 99 44 161q49 -31 94 -31q53 0 136 107q74 96 74 124q0 41 -208.5 274t-247.5 233q-11 0 -37 -10.5t-40 -10.5q-32 0 -92 48q-57 46 -59 59q-13 128 -13 123q0 98 62 98q10 0 89 -39q148 -73 330 -291l264 -336q32 4 51 139
q14 104 14 297q0 97 -4 110.5t-23 52.5q-14 32 -14 46q0 26 48 110q48 81 68 95q5 0 17 -5.5t18 -5.5q3 -13 3 -30q0 -14 -3.5 -42.5t-3.5 -42.5q0 -61 66 -79zM2169 1395q4 -81 -134 -167q-124 -77 -198 -77q-15 0 -28 5.5t-17 5.5v48q64 29 193 100q-27 35 -71 35
q-22 0 -98 -51q-15 2 -15 26q0 51 65 97q56 41 99 41q35 0 104 -19q76 -22 100 -44zM1811 1652q0 -57 -143 -150q-5 -3 -156 -88q-70 -46 -270 -151q-14 15 -14 36q0 53 86 109q66 36 131 72q120 76 352 213q14 -14 14 -41zM2180 792q0 -17 -41.5 -59.5t-60.5 -42.5
q-20 0 -69 31q-54 33 -54 56q0 31 42 76q41 42 60 42q28 0 75.5 -40t47.5 -63zM1331 516q0 -1 -15 -119q-5 -40 -49 -75q-4 64 -22 188q-9 36 -55 99q-48 67 -95 104q1 28 3 56q5 47 32 64q88 -38 147 -142q54 -93 54 -175zM2436 260q0 -69 -56 -162q-34 -55 -101 -81
q-61 -23 -151 -23q-56 0 -149 33q-12 5 -49 34q-32 25 -47 25q-9 0 -66 -29q-62 -32 -92 -40q-157 -44 -298 -44q-92 0 -246 24q-17 3 -62 20q-42 17 -55 17q-7 0 -33 -25t-59 -25q-48 0 -228 51q-38 -80 -92.5 -120t-217.5 -82q-132 -33 -159 -33q-42 0 -61 37
q38 37 251 121q187 72 210 144q-1 43 3 133q3 29 73 119q77 101 123 101q29 0 131 -157q3 -5 77 -68q50 -41 100 -50q200 -33 281 -33q111 0 152 7q63 10 155 51q-20 35 -64 41l-76 4q-14 13 -14 30q0 57 56 112q84 83 201 83q64 0 143 -41q92 -47 92 -107q0 -21 -51 -124
q13 -30 48 -35h55q122 0 163 47q-15 35 -72 124q-50 77 -50 90q0 42 44 107q52 -10 119 -103q72 -96 72 -173zM1145 -186q2 -49 -43 -72q-154 -74 -462 -229h-34q-13 14 -13 36q0 60 44 83q439 228 444 228h64v-46zM3858 1641h-37q-25 -24 -9 -39q46 22 46 39zM4196 211v45
q-79 108 -124 142q-30 24 -92 46q-56 20 -76 20h-63q-13 -35 -13 -96q0 -133 65 -197q36 -3 104 -3q125 0 199 43zM3139 169v50q-37 -37 -37 -50h37zM888 179v36q-10 21 -23 52q-15 7 -42 24q-25 -26 -25 -46q0 -28 25 -39q61 -25 65 -27z" />
    <glyph glyph-name="uniFB6B" unicode="&#x6a4;" horiz-adv-x="1449" arabic-form="final" 
d="M1629 1339q0 -51 -54 -89q-56 -32 -164 -98q-162 -107 -312 -181q-13 1 -13 25q0 54 14 66q85 66 231 157q212 132 240 151h45q13 -14 13 -31zM1147 1416q-11 -45 -151 -138t-193 -92h-63q-12 1 -12 25q0 48 76 74q89 30 108 60q-9 35 -57 35q-36 0 -132 -90q-8 1 -36 17
q27 56 71 111q70 85 128 85q36 0 127 -24q114 -30 134 -63zM1465 229q0 -251 -210 -251q-70 0 -194 61q-19 -23 -19 -55q0 -15 6 -49t6 -50q0 -14 -3 -26q-27 -111 -83 -184q-29 -38 -203 -110q-65 -27 -150 -27q-55 0 -119 16q-32 5 -91 28q-41 29 -85 116q-43 85 -43 131
q0 55 58 178q60 129 109 164h35q13 -13 13 -30q0 -10 -51 -107t-51 -112q0 -97 75 -157q69 -54 165 -54q252 0 321 135q2 3 2 106l-113 921q0 122 76 180q26 -12 26 -154q0 -18 17 -45q35 -371 149 -603q45 -90 168 -90q45 0 86 27q-8 23 -48 91q-33 58 -33 72q0 38 22 107
h43q56 1 93 -104q26 -76 26 -125zM1424 -335q0 -27 -41.5 -72.5t-61.5 -45.5q-35 0 -78.5 34t-43.5 59q0 22 26 69q31 54 60 54q18 0 75 -34q64 -37 64 -64z" />
    <glyph glyph-name="uniFB6C" unicode="&#x6a4;" horiz-adv-x="1834" arabic-form="initial" 
d="M1608 1369q0 -77 -51 -77q-13 0 -48.5 25.5t-48.5 25.5q8 0 -160 -138t-231 -138l-50 10q5 0 8 23q4 26 12 34q85 55 168 112q135 93 135 128q0 21 -81 72q-4 7 -4 20q0 57 59 144q62 91 113 91q33 0 41 -13q50 -90 48 -215q5 -4 67 -54q23 -18 23 -50zM963 1338
q0 -84 -190 -169q-159 -71 -224 -71q-16 0 -19 7q-5 13 -7 15v28q67 34 205 110q0 3 -4 16q-20 29 -63 29q-15 0 -65 -30q-74 -43 -92 -52v44q-1 17 42 64.5t81 70.5q44 25 86 25q-13 0 238 -63q12 0 12 -24zM1813 304q0 -251 -133 -251q-13 0 -136 31t-136 31
q-6 0 -113 -45q-113 -47 -162 -55q-41 -7 -175 -10q-104 -3 -147 -22l-20 -118q-23 -98 -73 -98q-47 0 -151 127q-18 67 -7 154q6 46 -32 46q-51 0 -123.5 -39t-73.5 -68q0 -11 -2 -47q-1 -30 -1 -45q0 -12 31 -258t31 -259q0 -71 -33 -152h-58l-73 648q0 231 146 328
q47 19 144 58q8 4 33 33q21 26 35 26q13 0 66 -44q67 -55 86 -67q51 -32 248 -32q172 0 232 48q2 90 27 173q4 18 28 69q20 44 20 58q0 10 -20.5 60t-20.5 63q0 144 82 144q26 0 208 -139t237 -201q36 -41 36 -147zM1412 1519q0 28 -11 35q-10 3 -28 -9q13 -26 39 -26z
M1719 249v36q-33 34 -127 106q-22 -64 -24 -112q90 -41 117 -41q15 0 23 5.5t11 5.5zM1475 345q0 15 -24.5 55t-41.5 52q-77 -41 -77 -102q0 -22 27 -42t60 -20q19 0 37.5 19.5t18.5 37.5z" />
    <glyph glyph-name="uniFB6D" unicode="&#x6a4;" horiz-adv-x="2801" arabic-form="medial" 
d="M2827 1747q0 -63 -219 -212q-112 -70 -224 -141q-10 -1 -24 12.5t-14 28.5q0 49 188 178l256 170q37 0 37 -36zM2847 1174q0 -52 -56 -70q-75 -23 -90 -43q1 -4 -3 -10t-4 -20l92 -757q0 -113 -31 -239l-23 -23q-10 0 -36 35q0 214 -61 512q-6 93 -27 277q-16 91 -16 108
q0 41 20 85q-31 11 -101 -12q8 28 -5 53q-2 4 -32 40q-26 30 -26 43q0 29 68 116q75 95 121 95q30 0 65 -16q43 -21 43 -51q0 -13 -51 -90q35 -12 140 3q13 -14 13 -36zM2089 1620q0 -78 -329 -280q-96 -63 -291 -171q-14 15 -14 31q0 21 23.5 59.5t40.5 48.5
q222 130 523 342h35q12 -13 12 -30zM2059 677q0 -61 -107 -91q-33 0 -73 25q-45 28 -45 62q0 22 34.5 64.5t57.5 42.5q25 0 79 -40.5t54 -62.5zM1035 1651q0 -62 -46 -62q-13 0 -51 20.5t-51 20.5q8 0 -153 -122q-164 -124 -238 -134q-5 6 -17 12.5t-17 12.5q29 47 140 129
q128 96 178 148q-22 36 -72 67q-8 48 42 144q57 112 126 112q36 0 42 -3q27 -14 42 -73q2 -11 2 -24q0 -17 -5.5 -53t-5.5 -54t5 -32.5t38.5 -42.5t37 -39.5t3.5 -26.5zM1035 1369q0 -53 -55 -104t-133 -69q-14 -3 -51 -26q-34 -21 -48 -21q-31 0 -52 34q-19 29 -19 63
q0 26 22 76q30 65 68 71q4 -76 2 -85l15 -16q18 17 36 59q23 55 35 74q29 -16 55 -82q37 0 41 38q7 59 38 95q46 -46 46 -107zM2499 381q0 -126 -143 -249q-132 -114 -261 -127q-97 -3 -296 -17q-34 -4 -75 -83.5t-73 -85.5q0 24 9 91q9 62 7 95q-112 99 -125 99
q-8 0 -101 -66t-186 -66q-83 0 -222 103q9 -242 -118 -383q-119 -130 -310 -130q-129 0 -223 85.5t-94 206.5q0 56 51 159q59 121 122 142v-57q1 -7 -35 -77.5t-36 -84.5q0 -85 87 -147q76 -53 144 -53q89 0 184 47q105 52 124 123q4 13 4 137l-103 942q0 46 65 132
q13 0 34 -33q18 -192 58 -452q29 -195 101 -367q18 -41 88 -87q49 -33 105 -33q75 0 172.5 67t114.5 67q11 0 89.5 -46.5t89.5 -46.5q20 0 230.5 164t286.5 164q51 0 138 -41q97 -46 97 -92zM2663 1204q-10 6 -39 23.5t-40 23.5l-13 -37q2 -2 3 -2q29 -26 89 -8zM870 1816
q-18 38 -48 38q0 -12 5 -23.5t5 -14.5h38zM2346 296q-110 54 -144 54q-37 0 -124 -66q-66 -52 -131 -105l138 -14q117 31 149 44q90 34 112 87z" />
    <glyph glyph-name="uniFB6E" unicode="&#x6a6;" horiz-adv-x="81" arabic-form="isolated" 
d="M587 1729q-7 -13 -23 -32q-115 -55 -172 -55h-72q-93 0 -154 62.5t-61 147.5q0 76 72 215q3 6 -7 15q-3 0 -24 -9t-40 -9v32q0 63 146 86q77 13 167 13h73q13 -13 13 -31q0 -57 -107 -75q-211 -36 -211 -206q0 -95 79 -124q38 -14 126 -14q81 0 171 10zM412 1909
q0 -19 -16.5 -40.5t-34.5 -21.5q-27 0 -52 34q-20 27 -20 38q0 51 52 51q20 0 45.5 -21.5t25.5 -39.5z" />
    <glyph glyph-name="uniFB6F" unicode="&#x6a6;" horiz-adv-x="3812" arabic-form="final" 
d="M3781 1679q0 -40 -45 -82q-6 4 -64 38q-39 24 -55 24q-13 0 -43 -30q-40 -41 -51 -49q-122 -89 -250 -137l-23 25q8 26 139 131q126 102 126 116q0 11 -25.5 45t-25.5 47q0 58 40 130q50 90 124 90q82 0 82 -102q0 -34 -10 -86q-9 -46 -9 -49q90 -102 90 -111zM3833 1290
q0 -42 -61 -73q-46 -23 -93 -46q13 -125 71 -511q42 -276 42 -425q0 -145 -80 -173l-145 905q10 46 41 163q-10 5 -31 -4q-26 -9 -37 -9h-55q10 12 10 45q0 26 -25.5 60.5t-25.5 41.5q0 30 47 86q40 44 79 88q23 26 74 26q87 0 87 -66q0 -19 -41 -82q22 -10 131 4
q0 -4 6 -9.5t6 -20.5zM3300 1004q0 -73 -57 -148q-61 -78 -127 -78q-11 0 -30.5 6t-29.5 6q0 16 -11 49.5t-11 46.5q0 61 59.5 155.5t104.5 94.5q48 0 77 -43q25 -39 25 -89zM2839 1642q0 -22 -198 -154q-143 -94 -286 -187h-47v54q0 34 139 124q271 174 335 219h57v-56z
M3485 282q0 -180 -157 -381q-168 -218 -355 -218q-112 0 -327 64v47q6 2 142 2q159 0 310 97q200 129 274 296q4 6 -6 16q-21 -19 -57 -48q-20 -14 -65 -14q-63 0 -102 51q-37 48 -37 113q0 71 47 166q54 110 123 110q100 0 171 -208q3 -8 23 -48q16 -30 16 -45zM2439 904
q1 -18 -60 -82q-56 -58 -65 -62q-200 -84 -247 -84q-12 0 -73.5 15t-75.5 15q-27 0 -49 -20q-29 -31 -59 -62q-14 16 -14 36q0 42 45 108q50 72 92 72q11 0 66 -20.5t73 -20.5q68 0 172 51q109 51 159 111h36v-57zM2308 410q0 -94 -34 -133q-11 -1 -29 9.5t-19 24.5
q-3 39 -14 113q-6 20 -49 77q-40 54 -40 67q0 20 14 54q20 43 48 43q57 0 96 -124q27 -88 27 -131zM1518 1627q-3 -27 -5 -53q-3 -36 -21 -48q-119 -84 -336 -212q-271 -160 -348 -208q-36 12 -36 51q0 56 194 172q98 53 197 106q176 116 308 192h47zM2779 323
q0 -76 -9 -109q-16 -64 -75 -128q-3 -3 -105 -38q-166 -58 -380 -58q-109 0 -124 3q-34 6 -103 43q-65 35 -75 35q1 0 -81.5 -61t-159.5 -61h-76q-90 0 -142 84q-39 81 -79 161q-116 -124 -350 -192q-185 -53 -351 -53q-12 0 -40 7q-31 9 -38 10q-133 19 -205 104
q-65 78 -65 186q0 63 46 159q47 102 101 137q37 0 37 -30q0 -12 -36 -89t-36 -90q0 -122 127 -186q89 -45 180 -45q123 0 350 72q275 88 275 190q0 111 -13 276q-7 76 -34 240q-25 151 -25 159q0 20 54 127q27 0 34 -12q45 -97 55 -273q6 -131 14 -261q16 -170 33 -339
q37 -168 195 -168q65 0 131 33q4 1 47 56q35 44 83 44q11 0 62 -31q57 -32 77 -38q82 -23 194 -23q103 0 235 25t150 47q19 25 19 61l-35 230q-15 129 -61 357l-37 88q-21 51 -21 93q0 45 29 120q29 77 57 95q33 -5 44 -73q14 -87 25 -103q25 -11 70 -41q-5 -33 -29 -108
q-21 -68 -21 -80t41 -276t41 -276zM2143 -252q0 -15 -18.5 -36.5t-36.5 -25.5q-198 -51 -306 -115h-36q0 4 -6 12.5t-6 22.5q0 11 20.5 37.5t20.5 39.5q0 9 -20.5 38t-20.5 44q0 42 71.5 113t107.5 71q35 0 66 -19.5t31 -46.5q0 -28 -41 -91q56 1 174 0v-44zM2255 -396
q-15 -16 -35 -40q-152 -61 -472 -188q-8 4 -16.5 9.5t-8.5 21.5q0 97 508 266q14 -12 24 -12v-57zM1099 522q0 -45 -64 -124q-65 -81 -110 -81q-91 0 -183 96v47h54q10 0 25 -15t28 -15h69l17 16q-9 9 -68 47q-45 30 -45 44q0 50 67 154q74 118 138 118q27 0 51 -23
q21 -21 21 -34q0 -20 -34.5 -68.5t-52.5 -48.5q-10 0 -25.5 5.5t-32.5 5.5q0 -5 19 -19q126 -34 126 -105zM3617 1844q0 10 -4 26q-10 17 -46 -1q24 -25 50 -25zM3198 952q0 15 -5.5 25.5t-5.5 14.5h-38q-3 -5 -21 -25q-12 -15 -12 -31q0 -14 14 -23q11 -6 21 -12
q47 23 47 51zM3310 352q-19 38 -56 58q-35 -36 -35 -57q0 -24 12 -25h56z" />
    <glyph glyph-name="uniFB70" unicode="&#x6a6;" horiz-adv-x="1758" arabic-form="initial" 
d="M1450 1208q-3 0 -14 -6t-26 -6q-13 0 -56 30.5t-56 30.5t-58 -55q-57 -69 -87 -94q-60 -50 -151 -91q-75 -33 -148 -66h-37v57q105 70 210 139q168 118 168 156q0 14 -23 36.5t-46 43.5q-3 12 -3 33q0 46 47 122q55 92 117 92q15 0 29 -5q39 -37 39 -109q0 -15 -3 -50
q-2 -27 -1 -40q3 -28 51.5 -71t47.5 -51v-96zM826 1257q0 -9 -5.5 -31.5t-5.5 -38.5q-3 0 -16.5 -5.5t-28.5 -5.5q-12 0 -33.5 15t-32.5 15q-3 0 -60 -59q-64 -67 -96 -91q-39 -30 -112 -66q-103 -53 -117 -60q-12 11 -34 11q8 44 154 154q142 108 142 157q0 11 -31 55.5
t-31 57.5q0 60 44 133q51 86 120 86q30 0 54 -28q21 -24 24 -47q-4 -47 -3 -134q2 -23 35 -65t33 -53zM1758 295q0 -225 -138 -225q-11 0 -128 20.5t-128 20.5q-12 0 -106 -27q-114 -32 -159 -42q-12 -3 -28 -3q-14 0 -47.5 2.5t-50.5 2.5q-67 0 -94 -34q-5 -7 -16 -88
q-10 -78 -50 -117q-7 -2 -14 -2q-93 0 -150 137q-26 62 -26 99q0 14 5 45.5t5 58.5q-3 0 -7.5 4.5t-19.5 4.5q-189 0 -189 -189q0 -13 51 -279.5t51 -279.5q0 -10 -32 -173q-5 0 -23.5 -5t-24.5 -5q-11 111 -46 310q-23 78 -46 155q-22 92 -22 215q0 262 134 369
q23 17 80 36q70 24 85 32q17 19 54 49q17 -8 56 -53q44 -51 70 -69q76 -52 186 -52h57q10 0 43.5 6t46.5 6q14 8 34 25q-4 47 27 131q38 106 45 145q1 11 -13 47q-15 41 -15 77q0 19 3 40q8 45 51 82q2 0 9 8q4 6 20 6q24 0 199 -132q199 -150 247 -249q14 -31 14 -110z
M672 1392l-11 48q-8 0 -23 -15t-15 -23q5 0 24.5 -5t24.5 -5zM1656 288q-76 76 -141 108q-4 -103 0 -111q-7 0 57 -6q43 -5 84 9zM1399 316v77q1 19 -20 37t-41 18q-19 0 -45.5 -34.5t-26.5 -52.5t24 -40q26 -26 58 -26q13 0 30.5 10.5t20.5 10.5zM1277 1476q-9 14 -34 14
l-23 -28q5 0 24 -11t24 -11q10 19 9 36z" />
    <glyph glyph-name="uniFB71" unicode="&#x6a6;" horiz-adv-x="5469" arabic-form="medial" 
d="M5566 1443q0 -82 -98 -177q-93 -89 -159 -89q-11 0 -40 10.5t-42 10.5q-25 0 -117 -92q-15 15 -15 35q0 18 29.5 74t46.5 70q34 17 90 48q45 56 90 111q84 102 122 102t68 -44q25 -35 25 -59zM5125 1454q0 -55 -136 -124q-117 -60 -151 -60q-27 0 -50 23v35q40 24 122 80
q-15 15 -36 15q-17 0 -113 -71l-24 24q18 60 76.5 115t101.5 55q61 0 194 -57q16 -26 16 -35zM5473 225q-21 -119 -43 -173h-37l-135 875q9 50 18 101q13 55 61 88zM4572 1478q0 -40 -241 -200q-160 -107 -309 -193q0 4 -6.5 12.5t-6.5 23.5q0 70 46 103q122 88 287 192
q171 109 190 109q14 0 25 -5.5t15 -5.5v-36zM4562 824q0 -38 -43 -74q-40 -33 -69 -33q-30 0 -71.5 32.5t-41.5 54.5q0 14 37 64q39 54 60 54q25 0 74 -33q54 -36 54 -65zM4111 547q0 -23 -23 -89q-27 -72 -45 -79q-8 59 -37 167q-13 29 -75 108q-55 70 -55 83q0 14 33 81
h46q156 -153 156 -271zM3518 901q0 -17 -39.5 -59.5t-57.5 -42.5q-24 0 -107 51q-5 35 13 87q23 67 68 67q37 0 81 -42q42 -39 42 -61zM3026 1311q0 -4 -33 -72h-32q-13 0 -52 30.5t-52 30.5q5 0 -113 -99q-132 -112 -255 -167l-86 12q6 40 168 148q158 105 157 147v11
q-71 64 -71 132q0 72 60.5 137t121.5 58q42 -37 49 -102q4 -53 8 -107q7 -40 70 -97q60 -54 60 -62zM5054 317q0 -147 -81.5 -232t-215.5 -85q-107 0 -175.5 46t-70.5 46q-10 0 -44 -26q-37 -29 -52 -32q-107 -27 -295 -58q-166 -27 -193 -27q-60 0 -272 44q-24 5 -95 37
q-65 31 -78 31q-14 0 -64 -22q-70 -30 -88 -37q-95 -33 -202 -33q-38 0 -116 64q-83 69 -87 121h-25q-12 0 -25 -15q-16 -18 -25 -23l-84 -36q-61 -26 -76 -57q-26 -60 -53 -122q-37 -77 -76 -124q-181 -217 -313 -217q-126 0 -283 33q-105 22 -137 64q27 46 67 46
q13 0 59 -10t59 -10q158 0 297 73q161 86 245 248q-23 28 -116 30q-79 2 -106 72q-13 33 -13 68q0 65 50 173q56 124 114 124q53 0 109 -84q41 -71 83 -143q13 -3 31 -3q63 0 121 33q69 40 69 101q0 14 -4 28l-72 573q-1 7 -1 16q0 95 56 154q19 0 34 -23q13 -144 61 -441
q22 -167 44 -332q40 -197 170 -197q28 0 82 16q67 18 73 40q-13 17 -13 61q0 112 61 229q71 136 171 136q62 0 112 -105q42 -86 42 -136q0 -17 -52 -184q33 -31 79 -44q115 -33 228 -33q61 0 302 43q44 8 118 45q-14 26 -54 35q-29 7 -58 13q59 212 266 212q73 0 146 -48
q79 -51 79 -116q0 -39 -52 -108q18 -35 103 -35q133 0 133 82q0 -26 -96 577q-1 8 -25 57q-22 46 -22 82q0 72 33 171q1 3 53 55q29 -13 32 -62q2 -58 6 -64q14 -21 62 -57q39 -30 39 -43t-30.5 -92t-30.5 -92q0 -12 41 -235t41 -236zM3835 -158q0 -83 -198 -163
q-36 -14 -308 -150h-44q-13 14 -13 41q0 54 141 124l148 62q65 34 206 121h55q13 -13 13 -35zM1696 1366q0 -17 -21.5 -49t-42.5 -44l-865 -515q-9 7 -20 15q-14 10 -14 26q0 64 374 295q260 154 521 308h44q24 -23 24 -36zM1378 537q0 -25 -42.5 -71.5t-60.5 -46.5
q-15 0 -49 25q-26 19 -52 39q0 30 24 86q27 66 57 66q33 0 79 -42q44 -38 44 -56zM2095 307q0 -294 -363 -430q-243 -92 -539 -92q-725 0 -890 477q14 14 36 14q10 0 111 -77q116 -88 168 -115q28 -15 245 -78q50 -15 152 -34q160 -12 204 -12q319 0 592 114q192 80 192 172
q0 34 -14 53q-99 144 -99 177q0 27 17.5 66t38.5 52q62 -39 105.5 -124t43.5 -163zM5452 1364v37h-38q-16 -24 -43 -67q20 0 81 30zM2810 1486q0 31 -38 49v-38q11 -11 38 -11zM3589 340q-3 87 -55 120q-19 -6 -52 -30q-46 -34 -46 -61q0 -19 30 -50.5t47 -31.5q19 0 76 53z
M2503 228q-5 10 -22 34.5t-22 34.5l-25 -24v-36q1 0 23 -4.5t46 -4.5z" />
    <glyph glyph-name="uniFB72" unicode="&#x684;" horiz-adv-x="2673" arabic-form="isolated" 
d="M2527 1042l-40 -24q0 11 -13 37q-19 25 -91 86.5t-88 84.5q-78 109 -85 223q-85 -18 -85 -201q0 -88 20 -138q-25 21 -51 43q-9 48 -9 95q0 103 42 178.5t114 96.5q3 -151 91 -269q17 -24 101 -96q73 -64 87 -95q7 -30 7 -21zM2304 576q0 -374 -266 -640t-641 -266
q-374 0 -640.5 266t-266.5 640q0 363 256 626q215 221 463 259q53 8 96 44q50 42 50 97q0 60 -43 103t-103 43q-59 0 -103.5 -43t-44.5 -103q0 -68 56 -114q-112 -13 -249 -70q-93 -38 -161 -103l-45 6q63 73 200 136q67 30 192 55q-30 44 -30 102q0 74 59 124q55 47 126 47
q74 0 130 -49q58 -52 58 -126q0 -79 -60 -131q22 2 60 2q40 0 61 -2q-61 52 -61 131q0 74 58 126q55 49 130 49q72 0 127 -47q60 -49 60 -124q0 -58 -30 -102q121 -24 189 -55q136 -61 202 -136l-44 -6q-74 67 -163 103q-140 58 -249 70q54 44 54 114q0 60 -43 103t-103 43
q-59 0 -102 -43t-43 -103q0 -55 50 -97q42 -36 95 -44q250 -38 464 -259q255 -262 255 -626zM703 1153q-56 -48 -55 -43q21 51 21 139q0 182 -83 200q-7 -116 -85 -223q-16 -23 -88.5 -84t-91.5 -87q-13 -26 -13 -37l-39 24q0 11 8 21q13 31 86 95q84 72 101 96
q85 114 91 269q71 -21 114 -97t43 -179q0 -47 -9 -94zM2669 1105q-68 -101 -61 -286q2 -35 24.5 -108.5t23.5 -105.5q2 -36 -29.5 -72.5t-64.5 -36.5q-48 0 -70 24q0 -453 -320 -773.5t-775 -320.5q-454 0 -774.5 320.5t-320.5 773.5q-21 -24 -68 -24q-33 0 -65.5 36.5
t-30.5 72.5q2 32 24.5 106t23.5 108q8 185 -61 286q200 -13 261 -160l-5 -123q-5 73 -49 140q-55 84 -142 87q38 -57 38 -230q0 -32 -20 -101q-22 -72 -24 -100q-3 -76 70 -76q39 0 73 52q10 15 22 29q-6 -62 -6 -103q0 -429 311 -735t743 -306q433 0 744.5 306t311.5 735
q0 41 -6 103q12 -14 23 -28q33 -53 70 -53q76 0 72 76q-2 28 -24 100q-23 69 -23 101q0 171 41 230q-86 -3 -143 -87q-45 -67 -50 -140l-2 123q60 147 258 160zM2258 576q0 354 -240 597q-187 189 -429 245q-80 19 -192 19q-110 0 -190 -19q-243 -56 -430 -245
q-239 -242 -239 -597q0 -358 250.5 -609.5t608.5 -251.5q359 0 610 251.5t251 609.5zM2107 324q0 -42 -34 -92h-35q-49 47 -81 148q-35 111 -72 155q-13 -1 -27 -1q-161 0 -161 117q0 86 46 158q49 77 118 77q62 0 88 -64q22 -55 47 -169q30 -132 41 -170q4 -12 39 -81
q31 -60 31 -78zM1656 748q0 -12 -41 -89q-48 -89 -59 -118q-33 -108 -108 -320q-37 12 -64 91q-19 63 -38 127q-22 55 -96 184q-65 113 -65 125q0 11 6 45t6 51q3 0 11 6t23 6q38 0 72 -54q36 -75 123 -233q50 102 151 307h36q43 -87 43 -128zM1144 319q0 -68 -56 -118
q-40 46 -57 132q-24 118 -54 188q-12 26 -66 119q-43 76 -43 93q0 30 54 112q7 0 25 -5q64 -67 130.5 -246t66.5 -275z" />
    <glyph glyph-name="uniFB73" unicode="&#x684;" horiz-adv-x="2388" arabic-form="final" 
d="M2407 1258q0 -46 -27 -63q-44 -28 -491 -280q-10 7 -21 12q-14 9 -14 24q0 52 239 193q188 113 299 160q15 -15 15 -46zM1372 1491q-97 -58 -271 -125q-246 -95 -285 -113h-34q-23 24 -23 41q0 41 280 158q261 108 287 108q23 0 46 -23v-46zM1271 1171q0 -98 -95 -160
q-13 -9 -48 -10.5t-45 -6.5l-58 -36q-36 -22 -52 -22q-37 0 -60 33q-22 30 -22 69q0 29 28 78t52 55q4 -36 29 -102q30 46 101 143q11 -11 26 -46.5t25 -45.5q22 43 71 123q48 -27 48 -72zM2407 168q0 -176 -146 -356q-151 -187 -315 -187q-25 0 -252 45q-29 4 -65 41
q0 4 6 17.5t6 18.5q71 -9 161 -9q283 0 503 344l-8 35q-43 -31 -85 -31q-133 0 -133 169q0 62 30 137q41 104 109 104q81 0 141 -147q48 -113 48 -181zM1608 219q0 -88 -33 -161q-43 -94 -120 -94q-47 0 -122 36q-85 42 -120 96q-23 -33 -88 -98q-85 -65 -162 -65
q-69 0 -122 81q-34 61 -68 123q-21 -21 -78 -68q-52 -35 -100 -35q-11 0 -66 11.5t-74 12.5q-9 7 -44 42q31 100 122 184q51 48 156 115q80 52 86 72q36 128 79 136q6 -112 13 -224q9 -129 37 -209q6 -18 42 -38t63 -20q56 0 106.5 39t52.5 94l-61 394q-6 77 56 129
q35 -33 42 -86q10 -94 21 -186q22 -151 66 -236q61 -117 163 -117q51 0 51 37q0 13 -27 73q-36 82 -42 99q-19 77 -57 225q-27 96 -27 93q0 29 54 139q10 -5 23 -13q37 -126 68 -247q9 -35 66 -166q44 -103 44 -168zM1772 -98q0 -18 -14 -44q-15 -29 -30 -35
q-380 -156 -382 -156h-44v55q-1 32 173 107l250 104h34q13 -14 13 -31zM809 -149q0 -9 -14 -49q-25 -24 -173 -87q-109 -50 -320 -130q-25 24 -25 46q0 56 103 98q293 131 405 163q24 -25 24 -41zM2232 271q0 12 -5.5 33.5t-5.5 25.5q-25 0 -50 -24q7 -13 24 -35h37z
M769 241v78l-15 13q-48 -29 -95 -57q-58 -37 -63 -65h115q20 -1 58 31z" />
    <glyph glyph-name="uniFB74" unicode="&#x684;" horiz-adv-x="4277" arabic-form="initial" 
d="M4411 1516q0 -94 -106 -166q-90 -60 -154 -60q-11 0 -50.5 10.5t-52.5 10.5q-14 0 -50 -22q-41 -26 -54 -30q-14 15 -14 31q0 63 126 139q28 4 72 16q10 6 86 89q67 73 101 73q96 0 96 -91zM3961 1538q-185 -166 -302 -166q-33 0 -56 45q7 36 55 50q58 17 78 43
q-14 15 -41 15q-37 0 -119 -61l-16 10t-8 21q0 36 74 96q70 57 100 57q47 0 235 -53v-57zM4288 230q0 -36 -20 -93q-26 -69 -59 -75l-125 997q0 86 33 168h48q5 -43 73 -499q50 -329 50 -498zM3141 1806q1 -60 -525 -321h-46q-12 1 -12 25q0 55 46 83q87 52 243 131
q184 92 248 128h46v-46zM3121 1329q-11 -35 -44 -77q-22 -8 -163 -58q-101 -37 -117 -36h-41q-2 30 -6 83q-38 35 -38 59q0 42 81 123.5t124 81.5q40 0 69 -34q23 -26 23 -48q0 -13 -17 -38q-23 -34 -24 -37q51 0 153 -19zM3818 1024q0 -17 -44 -76q-45 -62 -46 -64
q-18 -77 -27 -255q-13 -56 -30 -174q-1 -13 -19 -44t-18 -42q0 -9 29 -60q33 -55 38 -78q15 -61 15 -134q0 -148 -118 -148q-13 0 -148.5 -10.5t-149.5 -10.5q-45 0 -73 45q-23 35 -23 78q0 13 33 82q62 -31 63 -31q48 0 124 83t76 127q0 49 -189 255q-186 203 -237 218
q-36 1 -101 6q-39 4 -93 50q-58 48 -73 94q-3 9 -3 58q0 123 61 123q45 0 121 -62l123 -100q107 -71 236 -231l202 -252q38 22 46 87q3 56 6 113q1 17 18 118q12 79 12 129q0 31 -10.5 81.5t-10.5 77.5q0 72 90 202q47 -4 47 -68q0 -17 -3.5 -47t-3.5 -40q5 -9 46 -50
q34 -34 34 -50zM2446 1336q0 -56 -137 -132q-120 -68 -156 -68h-83l-24 25q12 38 58 60q38 17 76 35q1 15 -8 20q-9 4 -23 4q-29 0 -65 -31.5t-56 -31.5q-15 0 -33 10q10 33 35 82q34 26 110 89q6 4 55 4q-20 0 240 -32q0 -3 5.5 -11t5.5 -23zM1974 1594q-5 -27 -25 -67
q-90 -78 -225 -161q-117 -68 -234 -137h-34q-9 5 -16 10t-7 20q0 45 100 110q59 33 117 65q91 59 268 173zM1627 1653q0 -65 -158 -158q-136 -79 -165 -79q-19 -1 -62.5 -7.5t-54.5 -6.5q-13 0 -82.5 16t-81.5 16q-23 0 -85 -92h-38v54q0 22 58 96t75 74q13 0 41 -15
q34 -19 47 -23q40 -12 91 -12q68 0 202 66q99 54 198 107q15 -15 15 -36zM2589 568q0 -240 -148 -240q-12 0 -80 20.5t-79 20.5q-13 0 -36 -26q-27 -30 -32 -33q-59 -34 -132 -34q-71 0 -137 34q-46 25 -86 65q-36 35 -32 35q-31 0 -67 -49q-31 -42 -31 -60q0 -59 104 -113
q62 -32 128 -49q26 -14 74 -37q3 -7 3 -19q0 -40 -21 -84q-24 -50 -53 -50q-10 0 -98.5 30.5t-100.5 30.5q-6 0 -101 -35.5t-165 -35.5q-12 0 -34.5 -1t-33.5 -1q-83 0 -129 97q-36 76 -48 299q-8 133 -20 378q-3 80 -26 238q-21 153 -21 157q0 24 24 68q24 41 42 55
q13 -12 31 -35q46 -308 52 -513q6 -171 31 -399q1 -49 26 -130q33 -50 95 -50h52q43 0 93 38q0 132 15 199q27 113 116 198q48 46 104 46q31 0 59 -37q42 -54 62 -68q50 -38 134 -38q76 0 119 84q66 132 74 140h36q1 -3 1 -136q59 -36 93 -36q20 0 38 27q2 15 -6 43
q-9 32 -9 47q0 34 52 138q68 -28 68 -179zM982 854q0 -8 -34 -76q-13 4 -52 30q-34 21 -47 21q-15 0 -23 -3q-45 -46 -133 -117q-255 -146 -311 -146q-14 0 -22.5 6t-11.5 6v37q21 16 192 114q127 74 206 160q-19 21 -63 52q-19 13 -19 50q0 63 64.5 146.5t115.5 83.5
q75 0 75 -135q0 -125 -7 -113q22 -28 43 -56q27 -34 27 -60zM1103 224q-13 -63 -64 -97q-32 -21 -107 -44t-106 -45q-58 -49 -168 -130q-14 15 -14 31q0 36 61 97q-11 15 -73 72q-50 46 -50 61q0 37 104 156q107 126 158 126q23 0 73 -33q54 -35 54 -60q0 -26 -42 -76
q-40 -47 -49 -47q-27 0 -99 72q-29 -13 -55 -37q6 -32 60 -55q48 -21 88 -21q17 0 69.5 15t64.5 15h95zM4288 1435l-13 39q-46 -23 -46 -50q23 11 59 11zM2906 1343q-13 37 -39 37v-37h39zM3591 145q0 25 -13 39q-29 -14 -46 -49zM837 1015v46l-24 24q-35 -18 -35 -49
q43 -21 59 -21z" />
    <glyph glyph-name="uniFB75" unicode="&#x684;" horiz-adv-x="3688" arabic-form="medial" 
d="M3777 1502q0 -69 -58 -143q-69 -85 -170 -102q-27 -16 -43 -16q-11 0 -51 15t-51 15q-14 0 -40 -27q-33 -36 -43 -44q-15 2 -15 26q0 94 116 154q20 1 61 6q47 60 93 120q70 82 119 82q34 0 60 -32q22 -30 22 -54zM3163 1609q0 -61 -145 -133q-124 -61 -162 -61
q-15 0 -60 23q-1 34 45 57q63 33 77 48q-16 15 -36 15q-13 0 -50 -22q-51 -31 -67 -39v55q0 40 73 87q66 42 95 42q13 0 92 -17q91 -21 126 -26q0 -3 6 -8.5t6 -20.5zM3675 212q0 -29 -23 -106q-27 -93 -57 -104l-146 1034q9 71 14 89q15 63 53 96q20 -13 42 -46
q117 -933 117 -963zM2620 1108q0 -72 -36 -72q-10 0 -43.5 20.5t-47.5 20.5q14 0 -142.5 -118t-251.5 -118q-27 0 -41 15q20 47 127 120q95 64 190 127v40q-62 36 -62 98q0 58 50 128q54 77 114 77q71 0 71 -140q0 -61 -7 -89q21 -30 60 -60q19 -16 19 -49zM2027 1159
q0 -66 -156 -161q-139 -85 -179 -85h-82l-13 13v37q141 59 225 120q-27 35 -72 35q-19 0 -116 -71h-37v34q0 47 85 100q76 49 119 49q13 0 90 -17q86 -19 122 -24q14 -13 14 -30zM3490 231q0 -16 -43 -61t-59 -45q-12 0 -96.5 10t-97.5 10q-33 0 -303.5 -81.5t-392.5 -81.5
q-186 0 -282 112q-35 -42 -111 -99q-32 -13 -99 -13q-10 0 -34 15t-37 15t-67 -20t-67 -20q-12 0 -86.5 25t-86.5 25q-11 0 -88 -25t-92 -25q-82 0 -164 42q-58 29 -113 79q-47 42 -46 42q-24 0 -153 -129q17 -36 88 -63q60 -23 106 -23q13 0 15.5 5.5t15.5 5.5
q174 0 174 -118q0 -34 -17 -88q-19 -57 -39 -77q-68 -66 -141 -93q-104 -39 -206 -77q-95 -29 -216 -29q-292 0 -387 157q-16 19 -42 62q-16 44 -16 104q0 219 166 372h37q0 -3 6 -11.5t6 -22.5q0 -12 -38 -79q-48 -84 -62 -117q-3 -9 -3 -40q0 -143 135 -212
q96 -49 220 -49h100q38 0 189 61q143 57 155 69q0 9 -17 20q-352 0 -352 157q0 111 178 291q27 27 87 59q57 29 79 29t66 -46q58 -61 79 -75q48 -33 167 -33q80 0 74 -1q31 5 81 44q27 30 86 80q7 -7 20 -23q2 -4 -7 -22t-9 -30v-40q84 -28 87 -28q75 0 120 62
q57 79 107 101q7 -17 1 -56q-7 -50 -7 -51q0 -36 46 -36q14 0 78 63q89 87 107 101q6 -7 20 -24q4 -97 94 -127q41 -13 151 -13q95 0 102 2l150 46q1 14 -9 21q-152 54 -218 54q-53 0 -90 -9q0 3 -6 9t-6 20q0 20 28 62q30 46 57 57q58 24 166 31q123 8 170 21
q-41 325 -56 520q-1 18 -24 73t-23 66q0 44 43 129q38 74 54 86q30 -20 36 -67q6 -40 11 -78q40 -17 112 -62q-10 -43 -46 -119l-28 -24q-18 -17 -18 -34q0 -2 24 -181q25 -188 29 -280q2 -28 -7 -112q10 -25 41 -34q204 -54 298 -54q32 0 146 -2v-55zM1341 1271
q0 -49 -122 -127l-126 -70q-141 -91 -322 -181l-16 10t-8 20q0 62 165 162l196 106q68 42 208 121q25 -24 25 -41zM1207 586q0 -27 -43 -67q-39 -36 -53 -36q-22 0 -75.5 36.5t-53.5 55.5q0 71 88 123q45 -26 91 -52q46 -29 46 -60zM767 329q0 -38 -23 -100t-44 -84
q-17 35 -24 111q-6 72 -24 107q-13 24 -65 86q-45 53 -45 65q0 17 23.5 49.5t38.5 32.5q50 0 109 -109q40 -77 50 -120q4 -11 4 -38zM2463 1288q-9 14 -34 14l-23 -28q6 0 24.5 -11t23.5 -11q10 19 9 36zM3672 1456h-49q0 -5 -5 -24.5t-5 -24.5q46 23 59 49z" />
    <glyph glyph-name="uniFB76" unicode="&#x683;" horiz-adv-x="3883" arabic-form="isolated" 
d="M3861 1561q0 -54 -142 -140q-79 -41 -157 -83q-119 -77 -219 -120q-14 15 -14 41q0 49 86 103q50 26 101 53q166 107 330 182q15 -14 15 -36zM3452 1582q0 -90 -136 -182q-118 -79 -182 -79q-8 0 -30.5 10t-36.5 10t-55 -39q-58 -55 -68 -63q-14 1 -14 25q0 19 37 81
t68 94q23 21 123 27q84 113 93 124q69 79 119 79q30 0 57 -33q25 -30 25 -54zM3697 930q0 -29 -23 -76q-27 -55 -59 -55t-70 25q-43 29 -43 62q0 20 30.5 63.5t46.5 43.5q30 0 118 -63zM3871 302q0 -97 -34 -206q-15 -46 -50 -62q-27 -14 -73 -32q-139 -33 -206 -33
q-32 0 -91 24q-64 25 -87 52q-5 10 -18 30q-137 1024 -137 995q0 101 56 159q45 -45 53 -108q8 -36 20 -112q13 -139 41 -409q8 -95 14 -188q12 -122 43 -201q13 -29 53 -50q34 -18 63 -18q55 0 141 20q120 29 120 72q0 14 -4.5 18.5t-4.5 14.5q-3 0 -7.5 4t-19.5 4
q-6 0 -38 -30.5t-69 -30.5q-65 0 -102 55q-32 46 -32 114t51 151q54 89 113 89q72 0 144 -142q61 -122 61 -180zM2857 1212q1 -18 -60 -66t-106 -68q-103 -44 -161 -44q-15 0 -31 5.5t-18 5.5q-3 44 29 76q-2 1 -25 10q-16 7 -16 21q0 45 74 103q71 56 115 56q38 0 199 -54
v-45zM3052 235q0 -120 -25 -161q-33 -54 -143 -72q-213 -33 -220 -33q-27 0 -59 24q-34 25 -34 53q0 12 10.5 50.5t10.5 55.5q18 5 50 -1q41 -8 47 -8q24 0 123 23q119 29 149 55q0 29 -60 104q-63 81 -112 102q-24 7 -61 36q-14 21 -14 49q0 29 18 58q19 34 49 34
q80 0 170 -108q76 -93 98 -172q3 -15 3 -89zM2120 1203q0 -67 -30 -67q-13 0 -69 41t-69 41q-9 0 -63 -53q-65 -64 -98 -87q-54 -37 -136 -80q-86 -46 -104 -45h-42q-23 23 -23 35t160 123q193 131 208 144q-18 36 -51 71q-20 21 -20 56q0 57 54 131q61 84 130 84
q81 0 81 -109q0 -40 -12 -92q-6 -25 -11 -48q19 -37 64 -80q31 -29 31 -65zM2459 455q0 -99 -194 -193q-139 -68 -371 -128l-238 -56q-24 -6 -61 -105q-32 -83 -120.5 -181.5t-165.5 -135.5q-69 -35 -156 -35q-88 0 -342 64v37q1 1 2.5 1.5t73.5 0.5q165 0 320 64
q201 82 299 249q-5 30 -51 29q-67 -2 -68 -2q-147 46 -147 141q0 73 50 171q58 116 129 116q46 0 121 -117q42 -69 85 -140q29 14 106 17q39 2 68 40q-23 28 -23 86q0 123 80 250q87 140 193 140q60 0 225 -116v-45q-23 -24 -41 -24q-9 0 -55 20.5t-62 20.5q-49 0 -132 -43
q-89 -49 -89 -89q0 -46 58.5 -100t105.5 -54t206 75q80 39 159 79q10 -7 21 -13q14 -8 14 -24zM953 1121q0 -27 -16.5 -52t-34.5 -25q-11 0 -45 20.5t-47 20.5q-10 0 -67 -54q-68 -65 -99 -86q-59 -39 -278 -136q-18 0 -36 6t-20 6q0 -2 12 47q53 45 208 132q123 70 178 143
q-3 19 -43 43t-40 73q0 64 60.5 144.5t114.5 80.5q71 0 71 -133q0 -130 -8 -115q16 -33 59 -62q31 -23 31 -53zM912 292q0 -110 -64 -202q-69 -100 -171 -100q-64 0 -107 64q-36 53 -36 105q0 29 78 216q0 1 17 112q8 55 53 55q27 0 105 -50q81 -51 101 -85q24 -43 24 -115z
M3676 401q-7 29 -46 59q-24 -24 -24 -36l23 -23h47zM2622 1186h-48q-23 -19 -64 -58h37q32 18 75 58zM1957 1450q-14 14 -37 14q-35 -17 -35 -48q33 -33 59 -33zM789 1327q-13 13 -38 13l-12 -48q6 0 19.5 -6t18.5 -6zM1433 247q0 38 -32 69h-36l-11 -47q42 -21 79 -22z
M810 207v34q-8 24 -59 65q-50 38 -71 41q-44 -65 -44 -112q0 -17 24 -39t53 -22q50 0 97 33zM3345 1555h-49q0 -5 -5 -24.5t-5 -23.5q46 22 59 48z" />
    <glyph glyph-name="uniFB77" unicode="&#x683;" horiz-adv-x="1573" arabic-form="final" 
d="M1188 1348q0 -48 -43 -79q-420 -301 -454 -301q-46 0 -46 36q0 60 35 86q80 59 230 150q182 109 240 148q38 0 38 -40zM1567 242q0 -41 -65 -123q-21 6 -73 45q-49 37 -62 37t-47 -16q-44 -20 -54 -23q-232 -75 -232 -268q0 -18 20.5 -90t20.5 -84q0 -35 -53 -110
t-75 -75q-41 0 -91 103q-41 84 -45 117v93q0 16 9 54t9 49v29l-8 10q-20 0 -84.5 -7t-75.5 -7q-141 0 -195 90q-41 68 -54 252q-7 48 -16 133q-3 73 -41 461q-2 12 -14.5 41.5t-12.5 45.5q0 36 64 122q47 0 55 -34q14 -61 16 -113q8 -77 21 -225q8 -155 16 -309
q19 -201 82 -259q35 -32 124 -32q76 0 90 3q43 10 92 58q9 7 48 78q32 59 72 76h35q0 -4 6 -12.5t6 -23.5q0 -43 -65 -166.5t-65 -165.5q0 -11 3 -20q10 10 19 42q10 41 19 57q39 75 93 124q90 82 235 141q60 25 119 25q46 0 96 -35q58 -39 58 -88zM1464 -147q0 -27 -43 -70
t-64 -43t-107 52q-2 50 24 94q30 49 72 49q35 0 76.5 -32t41.5 -50zM1730 -306q0 -51 -36 -74q-210 -123 -430 -218l-14 13v78q100 63 258 150q163 87 182 87q40 0 40 -36z" />
    <glyph glyph-name="uniFB78" unicode="&#x683;" horiz-adv-x="81" arabic-form="initial" 
d="M814 1842q0 -79 -97 -129q-76 -40 -144 -40q-46 0 -138 41l-102 -51q-37 9 -119 61q-25 -16 -106 -77q27 -25 96 -25q6 0 235 21q247 23 361 30l14 -12v-36q0 -36 -56 -41q-520 -55 -497 -55h-98q-148 0 -148 87q0 41 70 107q73 69 80 100q14 37 14 39q0 13 -20.5 97.5
t-20.5 97.5q0 20 23 66q38 0 45 -34q18 -93 35 -184q37 -140 92 -140q11 0 49 25.5t48 25.5q8 0 29.5 -15t37.5 -15q12 0 69 47q72 59 89 71q23 15 61 15q34 0 64 -22q34 -23 34 -55zM701 1813q-10 0 -26 14q-35 -17 -55 -39q35 8 81 25z" />
    <glyph glyph-name="uniFB79" unicode="&#x683;" horiz-adv-x="3253" arabic-form="medial" 
d="M3160 1529q1 -38 -212 -177q-174 -114 -275 -164q-14 14 -14 46q0 54 14 65q73 57 216 144q164 100 224 143h47v-57zM2515 1607q0 -62 -202 -200q-141 -95 -282 -188h-36q0 4 -6 12t-6 23q0 65 228 202q73 51 146 104q107 75 145 78q13 -14 13 -31zM2321 886
q0 -27 -23 -64q-28 -44 -64 -44q-35 0 -71 29.5t-36 52.5q0 27 15 68q21 55 51 55q36 0 82 -36t46 -61zM3252 282q0 -187 -128 -359q-144 -189 -337 -189q-11 0 -101.5 5t-103.5 5q-41 0 -106 44q-3 9 7 25t26 20q89 4 256 27q99 20 233 137q141 123 173 232q-5 5 -8 13.5
t-8 13.5q-92 -72 -122 -72q-62 0 -103 54q-36 47 -36 100q0 68 36 156q46 110 108 110q99 0 164 -131q50 -102 50 -191zM1839 1312q-37 -32 -46 -32q-14 0 -38.5 15.5t-37.5 15.5q-10 0 -61 -61q-64 -77 -131 -124q-106 -74 -244 -102l-25 25q16 32 154 126q147 100 205 181
q-35 23 -68 45q-35 26 -35 68q0 47 36 112q49 88 123 88q69 0 82 -83q3 -65 5 -129q1 -5 2 -6q19 -36 79 -70v-69zM2608 261q0 -114 -46 -165q-26 -28 -89 -53q-56 -23 -81 -23q-11 0 -86.5 -10t-86.5 -10q-36 0 -67 33q-25 28 -25 49q0 13 33 111q8 0 32.5 -9.5t36.5 -9.5
q15 0 269 64q17 11 17 38q0 33 -110 141q-39 20 -110 68q-26 21 -26 52q0 7 34 108h43q43 0 136 -92q86 -84 101 -126q25 -71 25 -166zM693 1556q0 -72 -68 -147q-69 -78 -141 -78q-57 0 -57 108q0 57 46 149q51 101 97 101q56 0 93 -55q30 -42 30 -78zM1973 369
q0 -154 -112 -321q-118 -174 -250 -198q-70 -13 -140 -13q-163 0 -253 21l-13 11v38q26 21 46 21q11 0 21 -4.5t25 -4.5q94 0 215 41q146 51 217 133q87 102 91 108q50 68 50 116q0 45 -70 106q-39 31 -79 63q-24 30 -24 56q0 47 43 113q80 -7 161 -120q72 -102 72 -166z
M714 338q0 -9 -14 -129q-15 -33 -39 -95q-6 0 -23 -12q-17 0 -34 24q2 241 -38 461q-78 435 -78 549q0 133 55 174q22 0 44 -34q19 -179 72 -533q55 -285 55 -405zM1338 410q0 -166 -119 -341q-110 -164 -213 -189q-93 -23 -195 -23q-187 0 -260 44v35q23 24 35 24
q9 0 47 -5.5t55 -5.5q153 0 287 83q148 91 237 262q12 33 7 44q-73 -51 -106 -51q-43 0 -98.5 63.5t-55.5 104.5q0 55 52 157q58 115 112 115q81 0 154 -133q61 -114 61 -184zM3079 405q-34 33 -60 33v-69q42 0 60 36zM591 1520q0 11 -26 36q-41 -28 -67 -77q10 -10 26 -15
q67 33 67 56zM1154 495q-19 37 -59 57l-13 -58q36 -17 72 1zM1665 1526q-9 14 -35 14l-23 -28q6 0 25 -11t24 -11q10 19 9 36z" />
    <glyph glyph-name="uniFB7A" unicode="&#x686;" horiz-adv-x="2943" arabic-form="isolated" 
d="M2996 1525q6 -23 6 -44q0 -97 -102 -174q-91 -68 -180 -68q-10 0 -35 5t-36 5q-14 0 -49 -28q-43 -35 -60 -44q-14 2 -14 26q0 22 43 83q42 59 62 71q29 5 81 27q1 0 88 108q68 85 104 85q37 0 92 -52zM2474 1889q0 -55 -220 -179q-163 -87 -325 -174q-9 -1 -23.5 13.5
t-14.5 32.5q0 59 143 133q83 40 167 78q72 51 216 131h34q23 -23 23 -35zM2413 1495q0 -86 -73 -150q-16 -14 -105 -38q-18 -5 -78 -33q-52 -25 -66 -25q-87 0 -87 67q0 80 71 168q22 -21 19 -93q4 0 11 -4.5t22 -4.5q16 0 27 17q7 33 15 65q11 35 43 61h36v-73q3 0 15 -4.5
t30 -4.5q15 51 62 154q8 0 25 -4q33 -42 33 -98zM2945 174q0 -22 -26.5 -82.5t-41.5 -71.5l-157 993q17 123 67 154q13 -12 31 -34q22 -178 68 -502q19 -70 46 -206q13 -125 13 -251zM2034 922q0 -36 -21 -69.5t-45 -33.5q-29 0 -72 32q-46 34 -46 65q0 25 30 64
q33 44 68 44q32 0 62 -43q24 -37 24 -59zM2506 251q0 -291 -169 -291q-83 0 -142 56q-25 24 -95 127q-20 -8 -58 -50q-41 -46 -61 -59q-44 -27 -132 -52q-77 -22 -101 -22h-82q-53 0 -89 33q-34 30 -34 68q0 34 44 123q119 -51 171 -51q56 0 163 41q134 52 134 118
q0 11 -25.5 150t-25.5 152q0 43 44 133q40 -19 54 -76l64 -294q65 -214 186 -214q61 0 61 41q0 7 -34 220q-28 151 -82 512q-2 13 -30 54t-28 54q0 39 85 224q41 -4 50 -68q9 -76 20.5 -87t41.5 -26.5t38 -24.5q-1 -67 -31 -136t-30 -72q0 -12 46.5 -291t46.5 -292z
M1103 1469q0 -62 -121 -139l-148 -84q-67 -39 -196 -120q-23 2 -58 15q6 9 14 75q160 98 484 289q25 -25 25 -36zM2280 -209q-5 -34 -37 -86q-112 -85 -459 -248q-36 15 -36 57q0 38 208 154q180 101 300 148zM939 727q0 -18 -43.5 -60.5t-63.5 -42.5q-25 0 -64 28
q-44 30 -44 59q0 22 19 64q25 54 58 54q27 0 82.5 -42.5t55.5 -59.5zM1574 492q0 -17 2 -37t2 -27q0 -36 -60 -109q-26 -30 -89 -53q-55 -19 -110 -39q-10 -79 -9 -120q3 -184 -182 -285q-142 -78 -307 -78q-55 0 -144 13q-73 11 -138 108q-61 90 -61 155q0 22 25 103
q27 89 50 130q17 30 62 74q47 0 47 -30q0 -13 -30.5 -84.5t-30.5 -84.5q0 -97 74 -160q68 -60 157 -60q90 0 212 42q171 57 171 152q0 13 -66 174t-66 175q0 72 57 91q43 -39 87 -79q45 -33 106 -33q128 0 128 57q0 12 -35.5 68.5t-35.5 68.5q0 62 33 112q151 -48 151 -244z
M1563 -384q0 -15 -33 -64q-36 -54 -58 -54q-20 0 -98 52q-28 -22 -56 -43q-36 -29 -51 -29q-37 0 -78 29q-45 32 -45 68q0 25 24 63q28 45 63 45q26 0 102 -51q20 10 63 54q36 38 49 38q28 0 73 -42t45 -66zM2884 1431h-49q0 -5 -5 -24t-5 -24q46 23 59 48z" />
    <glyph glyph-name="uniFB7B" unicode="&#x686;" horiz-adv-x="6164" arabic-form="final" 
d="M6208 1174q0 -44 -46 -66q-29 22 -59 43q-38 29 -54 29q-12 0 -53 -45q-47 -53 -67 -65q-53 -33 -216 -125h-45l-13 12v47q98 70 276 222q-61 86 -61 112q0 42 47 119q54 91 112 91q76 0 78 -174v-49v-16q31 -31 60 -63q41 -44 41 -72zM5717 1502q0 -69 -126 -150
q-110 -70 -156 -70q-25 0 -56 12v36q18 24 58 49q62 39 65 41q-15 15 -36 15q-28 0 -124 -71q-14 15 -14 35q0 62 74 118q68 52 125 52q11 0 73 -12q66 -11 93 -13q24 -15 24 -42zM6249 -238q0 -43 -53 -74q-39 -23 -60 -23q-11 0 -46.5 15t-50.5 15q-13 0 -44 -41t-58 -41
q-22 0 -74 30q-55 32 -55 52q0 37 36.5 80t66.5 43q26 0 88 -41q37 24 68 65q19 27 49 27t79 -35q54 -38 54 -72zM6167 274q0 -87 -45 -187q-20 -44 -102 -62q-110 -23 -196 -23t-125 23q-23 29 -79 79q-106 -122 -390 -122q-94 0 -124 20q-48 32 -48 140q0 30 3 69
q-5 6 -41 6q-72 0 -301 -122.5t-374 -122.5q-19 0 -109 23q-55 13 -96 78q-34 56 -67 113q-32 -38 -65 -75q-48 -57 -86 -75q-131 -64 -274 -64q-153 0 -153 112q0 10 6 42t6 48l24 6q20 6 30 2q68 -26 108 -26q64 0 147 20t111 42q31 26 69 72q41 49 41 65q0 11 -15 41
q-19 34 -22 50q-54 225 -54 283q0 48 34 102q67 -30 101 -219q8 -46 65 -225q47 -148 102 -181q22 6 44 56q30 66 46 86q92 115 196 115q13 0 230.5 -41t230.5 -41q11 0 58.5 10t59.5 10q90 0 122 -13v-55q-61 -82 -61 -121q0 -67 118 -67q79 0 177 29q135 39 135 105
l-82 706q0 92 44 163q29 0 44 -23q34 -180 72 -554q11 -107 47 -317q11 -44 57 -66q25 -12 74 -12q10 0 69.5 10.5t87.5 12.5q13 9 37 34q-46 104 -111 139q-2 41 12 89q17 63 48 63q64 0 120 -115q44 -93 44 -135zM4058 1180q0 -31 -23 -72h-32q-13 0 -44 25.5t-45 25.5
q-13 0 -47 -35q-25 -27 -50 -53q-139 -128 -329 -168l-23 24q-4 22 54 64q46 31 92 60.5t94 58.5q87 59 87 90q0 12 -41 58.5t-41 58.5q0 49 46 124q54 87 113 87q45 0 72 -44q15 -25 14 -82q-3 -64 3 -82.5t38 -47.5q48 -44 58 -54q4 -12 4 -38zM4959 -90q0 -59 -54 -89
q-436 -239 -474 -237h-44q0 4 -5.5 14.5t-5.5 25.5q0 50 218 166q154 80 308 161h45q0 -5 6 -15.5t6 -25.5zM3413 334q0 -119 -81 -287q-88 -183 -197 -256q-31 -21 -117 -38t-153 -17q-96 0 -227 24q-8 5 -33 32q14 46 66 46q11 0 45 -5t47 -5q149 0 300 107
q159 112 217 274q-9 2 -16 2q-17 0 -33.5 -12.5t-42.5 -12.5q-57 0 -103 66q-41 57 -41 103q0 60 37 150q48 122 122 122q70 0 145 -126q65 -111 65 -167zM2438 1387q0 -19 -17 -54q-18 -39 -37 -50q-37 -21 -390 -171q-211 -90 -778 -346q-470 -213 -482 -213q-24 0 -36 12
q0 4 -5.5 16.5t-5.5 27.5q0 80 238 161q751 363 1025 460q66 24 239 108q155 74 163 74h73q13 -1 13 -25zM1783 410q0 -29 -34 -70q-36 -43 -64 -43q-9 0 -114 84q-4 14 -4 29q0 32 33 72t60 40q49 0 90 -52q33 -41 33 -60zM2807 328q0 -423 -824 -536
q-343 -48 -575.5 -42.5t-243.5 5.5q-2 0 -166 37q-75 17 -118.5 25t-138.5 33q-73 37 -112 59q-64 37 -104 75q-52 47 -111 136q-47 75 -95 150v45q2 13 25 13q10 0 93 -84q93 -94 135 -119q139 -86 285 -123q97 -24 266 -55q156 -28 178 -28h359q179 0 547 79
q498 107 498 258q0 9 -51.5 114t-51.5 122q0 45 44 112q70 -42 114 -117q47 -77 47 -159zM6024 1367l-24 27q-6 0 -6 -39q10 0 30 12zM3857 1345v38h-18v-38h18zM4631 255q-94 24 -128 24q-117 0 -117 -77q0 -23 13 -36h73q23 -1 80 27q65 31 79 62zM3217 382v46
q-11 14 -37 14l-13 -37q23 -23 50 -23z" />
    <glyph glyph-name="uniFB7C" unicode="&#x686;" horiz-adv-x="1428" arabic-form="initial" 
d="M1131 1124q0 -30 -33 -66t-64 -36q-39 0 -128 63q18 71 31 94q21 38 62 38q44 0 88 -32.5t44 -60.5zM835 827q0 -73 -105 -150q-81 -59 -155 -82q-42 -13 -124 -13q-55 0 -104 13q-20 5 -69 33q-45 25 -58 25q-24 0 -58 -35q-24 -28 -47 -56h-38v54q0 39 79 111
q74 69 95 69q11 0 55 -33q51 -36 75 -46q30 -12 106 -12q136 0 299 153h36q13 -13 13 -31zM1418 141q0 -199 -313 -322q-226 -87 -388 -87q-126 0 -248 81q-146 98 -146 252q0 68 48 182q58 134 131 171l26 -26q-82 -190 -82 -225q0 -140 118 -209q86 -52 194 -52
q135 0 293 54q166 54 224 127q0 9 -18 20q-69 9 -138 19q-120 25 -120 71q0 15 22 52q170 36 223 114l-7 86q-79 -62 -121 -62q-59 0 -101 54q-37 48 -37 100q0 64 39 159q50 117 114 117q51 0 134 -103q76 -94 78 -127q0 -27 7 -92q7 -60 7 -72q0 -9 -18 -65
q-18 -64 -34 -88l80 -50q33 -23 33 -79zM1469 -227q0 -55 -63 -99q-92 -63 -231 -145q-144 -83 -162 -83h-42q-13 13 -13 30q0 54 77 103q59 31 119 63q145 91 290 172q25 -25 25 -41zM1149 572q4 10 4 19q0 43 -39 51l-24 -30q0 -17 24 -40h35z" />
    <glyph glyph-name="uniFB7D" unicode="&#x686;" horiz-adv-x="4822" arabic-form="medial" 
d="M4809 1817q0 -64 -207 -162q-184 -87 -311 -150q-24 24 -24 36q0 52 33 72q104 62 269.5 145.5t184.5 83.5h43q12 -1 12 -25zM4861 1326q-44 -72 -109 -99q-45 -19 -45 -70l92 -819q0 -44 -20.5 -142t-31.5 -112q-21 -21 -48 -21q-9 209 -12 263q-9 150 -29 261
q-57 327 -74 462q-3 29 21 101q-17 17 -36 17q-14 0 -94 -20q-2 30 -6 83q-11 4 -30 30.5t-19 44.5q0 36 84 118t132 82q82 0 82 -90q0 -35 -11 -67q37 -12 130 3zM4062 1203q0 -59 -176 -129q-151 -61 -197 -61q-59 0 -77 36q9 48 72 67q116 34 122 37q-14 35 -67 35
q-41 0 -64 -16q-45 -31 -62 -38l-22 11q22 67 82.5 116.5t127.5 49.5q14 0 104 -30q109 -35 146 -44q0 -3 5.5 -11.5t5.5 -22.5zM3263 1448q1 -34 -33 -53q-572 -310 -618 -310h-43q-12 2 -12 26q0 48 44 72q571 312 607 311h55v-46zM2588 1357q0 -86 -184 -160
q-148 -61 -215 -61q-13 0 -86 15.5t-83 15.5q-8 0 -101 -91h-46q-12 0 -12 24q0 26 68 111q71 89 106 89q-1 0 54.5 -25.5t124.5 -25.5q168 0 337 133q37 0 37 -25zM2557 619q0 -146 -68 -179q-7 7 -18 25q18 98 -10 163q-17 39 -91 123q-69 77 -69 89q0 16 22 38.5t39 22.5
q85 0 146 -123q49 -96 49 -159zM4441 348q0 -85 -37 -157q-45 -89 -122 -89q-27 0 -100 21q-77 23 -94 41q-76 -113 -236 -113q-19 0 -93 13q-8 2 -37 25t-44 23q-11 0 -60 -20q-54 -23 -83 -28q-73 -13 -169 -13q-14 0 -67.5 10t-65.5 10q-22 0 -39.5 -30.5t-73.5 -30.5
q-52 0 -162 29q-135 34 -153 74q-11 -1 -39 -29q-30 -32 -48 -40q-58 -28 -275 -53q-178 -22 -234 -22h-102q-64 0 -191 42q-133 45 -163 81q-108 -112 -245 -112q-110 0 -176 66q-41 42 -73 123q-26 66 -38 66t-48 -34q-43 -43 -62 -54q-40 -24 -136 -24q-86 0 -158 51
q-2 12 -2 26q0 118 127 215q80 44 220 146q7 8 3 33q-8 41 -8 46q-8 136 31 169q26 0 34 -13q35 -72 69 -264q32 -189 69 -261q62 -118 194 -118q82 0 141 56.5t94 56.5q13 0 66 -33q64 -38 85 -47q102 -43 274 -43q176 0 378 23q87 10 163 51q51 67 103 134
q105 130 144 130q10 0 55 -63q53 -74 92 -102q129 -91 273 -91q13 0 153 13q59 5 110 40q37 26 63 88q15 11 40 33h36q13 -13 13 -35q0 -31 -41 -113q16 -26 92 -26h78q26 5 67 42q17 16 55 107q36 84 71 107q34 -12 34 -51q0 -17 -8.5 -51t-8.5 -46q0 -5 1 -8
q60 -49 131 -49q13 0 18 4.5t14 4.5q0 19 -7.5 63.5t-7.5 70.5q0 73 48 134q29 -19 50 -92q18 -64 18 -113zM1994 -249q-19 -63 -110 -97q-75 -23 -149 -46q-51 -24 -148 -68q-5 18 0 56q8 47 8 51q0 12 -25.5 36t-25.5 36q0 28 74 117q77 92 109 92q28 0 69 -26
q44 -28 44 -56q0 -12 -51 -85q15 -4 28 -4q19 0 45 9t36 9h73zM2116 -404q0 -44 -36 -63q-95 -51 -256 -116q-153 -61 -174 -61h-42q-13 13 -13 30q0 62 54 88q87 41 444 168q23 -25 23 -46zM1278 -56q0 -19 -22 -55q-22 -38 -43 -49q-90 -47 -232 -107t-161 -60h-41
q-13 14 -13 30q0 62 54 89q133 58 399 177h46q13 -1 13 -25zM744 141q0 -41 -34 -46q-221 -34 -319 -34q-55 0 -114 22q-75 28 -75 70q0 11 43 63q42 50 52 56q40 11 102 37q15 10 67 62q39 39 54 39q27 0 47 -50q14 -36 14 -53q0 -15 -23 -60q-30 0 -55 50
q-59 -38 -178 -123q84 -24 148 -24q253 0 271 -9zM4623 1332v39q-3 0 -24.5 4.5t-33.5 4.5q2 -40 58 -48zM2996 228q-20 61 -56 79q-24 -24 -24 -48q34 -35 80 -31zM1206 339q0 35 -23 80h-35q-76 -37 -178 -119q-9 0 32.5 -6.5t117.5 -6.5q45 14 86 52z" />
    <glyph glyph-name="uniFB7E" unicode="&#x687;" horiz-adv-x="81" arabic-form="isolated" 
d="M689 1572q-23 -47 -57 -47q-30 0 -76 43v38q38 32 46 32q43 0 87 -66zM863 1399q-25 -32 -125 -62q-88 -26 -131 -26q-111 0 -175 66q-60 62 -60 159q0 70 61 198q-25 -5 -71 -1v36q21 22 55 58q20 21 142 19q48 -2 198 17q24 -24 24 -35q0 -27 -35 -51q-29 -21 -51 -24
q-252 -24 -252 -197q0 -143 220 -143q34 0 200 -14z" />
    <glyph glyph-name="uniFB7F" unicode="&#x687;" horiz-adv-x="5169" arabic-form="final" 
d="M4907 1357q0 -54 -53 -84q-180 -89 -544 -279h-34q-13 13 -13 30q0 48 43 77q83 43 246 129q116 64 331 163q24 -26 24 -36zM4017 1116q0 -22 -13 -49q-16 -33 -33 -33q-14 0 -56 33q-50 41 -67 49q-33 -37 -110 -112q-64 -56 -123 -80q-135 -54 -192 -54q-27 0 -40 14
q0 25 12 33.5t168 96.5q125 72 178 128q-7 13 -43 66q-29 42 -29 56q0 54 57.5 127t106.5 73q69 0 69 -128q0 -25 -3 -57.5t-3 -33.5q8 -10 73 -62q48 -39 48 -67zM3105 1212q1 -67 -186 -134q-153 -54 -202 -54q-17 0 -41 25q15 42 83 64q88 31 111 50q-19 35 -66 35
q-41 0 -81 -27q-52 -36 -77 -44v44q0 16 45 63q41 42 69 61q37 26 95 26q-5 0 250 -64v-45zM2533 1516q0 -52 -27 -72q-117 -84 -438 -266h-36v79q149 107 453 289h34q14 -14 14 -30zM4089 -261q0 -30 -44.5 -74t-73.5 -44q-11 0 -47.5 20.5t-49.5 20.5q-14 0 -57 -41
t-56 -41q-34 0 -81 44q-42 40 -42 54q0 28 43 74q41 44 60 44q10 0 52 -26t55 -26q12 0 56 41t56 41q26 0 75 -29q54 -31 54 -58zM5164 328q0 -236 -154 -236q-78 0 -189 51q-17 -24 -59 -68q-59 -45 -115 -45q-13 0 -110 26t-110 26q3 0 -99.5 -36t-213.5 -36
q-150 0 -286 113q-45 -68 -159 -104q-93 -29 -194 -29h-113q-143 0 -143 189q0 36 6 70q-2 4 -14 18q-12 3 -27 3q-99 0 -286 -89q-98 -47 -318 -117q-11 -3 -93 -6q-72 -1 -86 -44q-80 -245 -177 -343q-102 -101 -276 -101q-132 0 -211 23q-31 10 -95 53q19 47 46 47
q12 0 63.5 -10t64.5 -10q11 0 39 8t38 8q125 3 261.5 120.5t152.5 235.5q-92 81 -92 134q0 57 33 107h35q22 -20 62 -48q47 -23 136 -23q76 0 301 74q18 6 58 33q-176 88 -195 88q-12 0 -94 -28q-100 -33 -140 -43q0 3 -6 11.5t-6 23.5q0 39 77 109q56 49 100 76
q60 35 110 35q7 0 137 -57q137 -62 197 -74q87 -18 216 -28q108 -9 217 -17v-35q1 -18 -24.5 -56.5t-48.5 -56.5q-19 -5 -59 -30q19 -40 48 -54q47 -22 126 -22h56q124 0 213 53q3 2 48 50q37 40 62 40q8 0 65 -47q62 -52 95 -63q36 -13 126 -13q149 0 217 43q32 20 63 118
q21 28 53 44q34 -15 34 -54q0 -18 -9.5 -57.5t-9.5 -55.5q18 -17 103 -17q97 0 127 16q23 13 51 71q41 87 91 158h36q4 -17 4 -33q0 -24 -11 -52.5t-11 -36.5q0 -27 39 -46q33 -16 63 -16q24 0 51 26q-41 62 -41 97q0 43 43 132h37q32 -54 64 -109q10 -20 10 -84zM1918 1358
q-24 -87 -156 -167q-123 -75 -217 -75q-15 0 -28.5 5.5t-16.5 5.5q0 6 -5.5 25t-5.5 24q70 27 204 90q-20 45 -77 45q-15 0 -56 -36q-33 -28 -67 -57q-15 15 -15 31q0 54 63 114t116 60q17 0 119 -22q118 -25 142 -43zM2256 773q0 -23 -30 -73q-32 -55 -57 -55t-65 26
q-43 28 -43 51q0 19 28 70q33 58 59 58q22 0 65 -30t43 -47zM3085 -261q0 -33 -51 -72q-48 -35 -76 -35q-18 0 -108 52q-3 57 13 79q47 63 89 63q29 0 79 -30q54 -33 54 -57zM1160 1484q0 -55 -53 -88q-47 -29 -308 -170q-74 -48 -248 -131q-15 13 -25 13q11 41 45 100
q179 102 532 307h44q13 -13 13 -31zM966 788q0 -29 -43 -67q-40 -35 -59 -35q-35 0 -123 63q4 34 26 79q31 62 71 62q24 0 74 -36q54 -40 54 -66zM1898 256q0 -131 -79 -268.5t-210 -239.5q-58 -45 -223 -45q-161 0 -304 32l-13 12v26q18 33 61 33q12 0 43 -5t44 -5
q174 0 337 109q167 114 231 284q5 6 -5 16q-49 -52 -92 -52q-48 0 -105 65q-54 61 -54 105q0 20 43 123q42 101 53 112q47 46 83 46q93 0 149 -154q41 -112 41 -194zM1263 251q0 -74 -2 -83q-7 -34 -54 -134q-29 -61 -189 -117q-142 -50 -226 -50q-121 0 -204 77t-83 189
q0 67 46 164q56 119 134 143q15 -14 15 -35q0 -13 -36 -95t-36 -95q0 -93 82 -140q59 -34 128 -34q56 0 181 41q152 50 152 102q0 73 -71.5 189t-71.5 164q0 29 44 118q70 -32 133 -169q58 -131 58 -235zM1734 361q0 16 -21.5 37t-36.5 21l-23 -23v-36q5 0 23.5 -11
t23.5 -11q5 5 16.5 11.5t17.5 11.5zM3818 1271q0 25 -5.5 47t-5.5 23q-51 -25 -48 -48q42 -22 59 -22z" />
    <glyph glyph-name="uniFB80" unicode="&#x687;" horiz-adv-x="1461" arabic-form="initial" 
d="M1424 1375q0 -66 -278 -233q-173 -104 -311 -171q-36 27 -36 46q0 46 229 180q299 174 348 214h35q13 -14 13 -36zM1465 259q0 -159 -93 -159q-83 0 -259 62q-25 -51 -91 -130q-32 -21 -96 -38q-58 -16 -81 -16q-98 0 -140 45q-46 47 -67 184q-27 175 -58 518
q-27 292 -27 333q0 63 55 117q8 0 24.5 -15.5t19.5 -29.5q29 -119 39 -299q11 -214 23 -285q15 -129 32 -259q31 -126 145 -126q74 0 120 42q38 34 88 130q15 29 77 98q67 74 117 115q39 15 38 15q61 0 103 -146q31 -105 31 -156zM1299 296v46q-20 24 -36 24l-24 -24
q12 -23 60 -46z" />
    <glyph glyph-name="uniFB81" unicode="&#x687;" horiz-adv-x="2327" arabic-form="medial" 
d="M2468 1679q0 -58 -124 -147l-144 -92q-82 -56 -227 -150q-37 12 -37 51q0 -6 14 49q136 94 471 319h36q0 -4 5.5 -10t5.5 -20zM2970 1516q0 -28 -24 -75t-40 -56q-240 -130 -547 -344q-342 -238 -444 -362q0 -11 28 -32q166 -34 305 -182q19 -19 42 -82q25 -66 25 -101
q0 -272 -348 -272q-118 0 -142 24q-37 37 -47 115q-4 66 -9 132q-11 169 -31 502q-5 78 -32 245q-26 159 -26 165q0 41 44 127h46q62 -207 66 -484q1 -9 13 -27q399 339 1074 747h34q13 -13 13 -40zM1424 1398q0 -13 -5.5 -33.5t-5.5 -30.5q-1 -1 -2 -3q-9 -10 -28 -10
q-12 0 -51 25t-52 25h-11q-35 -53 -152 -147q-133 -108 -195 -108q-14 0 -25 5.5t-15 5.5v48q185 135 296 233q-7 12 -61 71q-41 47 -41 62q0 21 23 83q13 34 63.5 75.5t82.5 41.5t51 -17q11 -71 48 -222q5 -14 45 -51q35 -34 35 -53zM1331 971q2 -32 -23 -83
q-27 -59 -58 -59q-30 0 -76.5 36.5t-46.5 61.5q0 16 29 64q32 53 53 53t122 -73zM595 1475q0 -50 -45 -141q-23 -45 -76 -73q-41 -22 -69 -22q-44 0 -74 44q-23 33 -23 58q0 7 38 109q36 99 37 102q34 66 89 66q42 0 83 -53q40 -49 40 -90zM615 256q0 -59 -25 -120t-54 -74
l-156 987q-3 26 12 72q18 50 42 66q29 0 44 -24q13 -42 31 -123zM1547 302q0 -52 -24 -127q-27 -85 -61 -100q-63 -18 -173 -68q-21 -14 -34 -55q-18 -58 -20 -61q-173 -341 -456 -341h-123q-37 0 -103 23q-63 22 -91 42q20 37 61 37q13 0 69.5 -5t151 10.5t223.5 115.5
q118 92 181 192q-7 26 -84 28q-92 3 -119 21q-64 43 -64 139q0 74 46 170q58 117 134 117q53 0 120.5 -123t119.5 -123q36 0 85 21q58 24 58 56q0 14 -45 82q-38 56 -74 111q-4 12 -4 43q0 30 13 64q14 43 39 43q56 0 120 -146q54 -125 54 -166zM1238 1557q0 37 -37 49v-38
q3 0 14 -5.5t23 -5.5zM2212 260q-20 59 -144 127q-100 57 -190 83l-14 -24q0 -53 34 -236q36 -26 79 -26q28 0 115 24q100 28 120 52zM502 1427q-19 39 -56 57q-46 -42 -46 -77q0 -21 14 -35q50 17 88 55zM1075 186q-13 29 -46 70q-35 -35 -35 -48q12 -6 34 -22h47z" />
    <glyph glyph-name="uniFB82" unicode="&#x68d;" horiz-adv-x="4196" arabic-form="isolated" 
d="M4197 1352q0 -63 -194 -187q-136 -88 -240 -134h-34q-13 13 -13 35q0 53 43 82q75 50 206 121q192 103 219 119q0 -4 6.5 -12.5t6.5 -23.5zM3716 1269q0 -60 -145 -134q-127 -64 -172 -64q-15 0 -31 5.5t-19 5.5q0 3 -6 9t-6 21q0 26 34 46q45 11 130 53q-14 34 -46 34
q-12 0 -178 -81v34q-1 42 83 108q78 62 111 62q-11 0 245 -64v-35zM3132 1398q0 -67 -84 -119q-152 -96 -303 -193q-187 -117 -203 -117h-44v65q-1 22 166 120q59 35 431 275q37 0 37 -31zM4279 -321q0 -27 -41.5 -65t-65.5 -38q-13 0 -59 26t-59 26q-12 0 -53 -36t-54 -36
q-27 0 -75 43q-43 39 -43 49q0 22 28 69q32 54 58 54q12 0 54 -25.5t54 -25.5q13 0 54 36t54 36q44 0 98 -48q50 -43 50 -65zM2283 1316q0 -24 -24 -71q-19 5 -70 30q-46 21 -60 21q-51 -50 -106 -94q-131 -106 -257 -162l-66 13q11 39 185 163q46 38 132 107q-9 16 -44 64
q-29 38 -29 52q0 54 45 140q54 106 125 106q84 0 84 -164q0 -3 -5 -85q10 -21 53 -64q37 -36 37 -56zM4207 298q0 -138 -84.5 -220t-227.5 -82q-109 0 -189 51t-108 51q2 0 -118.5 -41t-239.5 -41q-11 0 -73.5 10.5t-75.5 10.5q-10 0 -56.5 -41t-61.5 -41q-24 0 -144 23
q-16 4 -74 37q-55 32 -68 32q-11 0 -61 -43q-54 -47 -80 -56q-38 -13 -110 -13q-97 0 -140 38q-39 33 -102 166q-28 -24 -115 -79q-72 -45 -102 -82q-12 -14 -28 -75q-18 -65 -40 -99q-77 -121 -232 -244q-56 -45 -198 -45q-74 0 -170 19q-119 23 -153 57q26 47 51 47
q13 0 87.5 -5t87.5 -5q113 0 263 103q144 100 218 220v27q-31 18 -56 18q-13 0 -28.5 -5t-28.5 -5q-184 0 -184 163q0 79 54 171q61 106 135 106q42 0 110 -102q43 -67 87 -134q81 -5 142 27q76 39 76 121q0 117 -55 502q-3 15 -21 73q-16 52 -16 66q0 20 12 97q7 37 66 77
q40 -67 58 -177q11 -93 24 -186q14 -133 51 -399l26 -172q39 -121 157 -121q31 0 141 63q49 66 98 131q96 123 145 123q13 0 62 -57q62 -70 79 -84q103 -84 254 -84h90q60 0 139 48q-13 34 -45 34q-13 0 -25.5 -5t-28.5 -5q-1 2 -2 3q-11 11 -11 38q0 78 91 136
q76 48 139 48q68 0 157 -33q115 -44 115 -110q0 -12 -19 -64q-25 -65 -34 -100h124q164 0 164 71q0 14 -56.5 111t-56.5 110q0 30 22 115q12 13 29 13q35 0 96 -103q54 -91 65 -137q3 -18 3 -62zM1166 1439q0 -49 -15 -60q-105 -76 -271 -174q-141 -82 -280 -165h-46
q-12 2 -12 26q0 12 6.5 33.5t6.5 30.5q22 14 369 219q57 38 115 76q77 50 114 55q13 -14 13 -41zM952 804q0 -42 -54 -76q-41 -26 -59 -26q-23 0 -69 23q-54 25 -54 49q0 26 34 77q37 56 63 56q30 0 84.5 -42.5t54.5 -60.5zM1320 155q0 -38 -65 -174q-19 -39 -163 -100
q-138 -59 -191 -59q-359 0 -359 317q0 15 96 240q33 26 65 26q1 -1 2 -3q11 -9 11 -28q0 -12 -30.5 -94t-30.5 -95q0 -179 240 -179q98 0 190 35q122 46 122 129q0 128 -139 299q-14 17 -14 59q0 45 44 113q103 -41 167 -206q55 -141 55 -280zM2107 1471q0 25 -5.5 47
t-5.5 23q-51 -25 -48 -48q42 -22 59 -22zM2855 183q-14 29 -20 38q-14 21 -36 30q-24 -23 -24 -38q63 -32 80 -30zM1747 170q3 12 3 22q0 33 -47 50q-24 -25 -24 -38q24 -11 68 -34z" />
    </font>
</defs>
</svg>
